/* XPM */
static char * anvil_xpm[] = {
"45 30 569 2",
"  	c None",
". 	c #848784",
"+ 	c #8E968F",
"@ 	c #989F99",
"# 	c #8A938D",
"$ 	c #939D98",
"% 	c #9EA69F",
"& 	c #A3A9A0",
"* 	c #B2B6A7",
"= 	c #A4A699",
"- 	c #A6A699",
"; 	c #B3B2A8",
"> 	c #ADACA5",
", 	c #9E9E93",
"' 	c #A4A395",
") 	c #A09F96",
"! 	c #7E7F74",
"~ 	c #73746D",
"{ 	c #797C74",
"] 	c #82857D",
"^ 	c #9B978E",
"/ 	c #A29D93",
"( 	c #A39A8F",
"_ 	c #A3998D",
": 	c #A69B8C",
"< 	c #B0A59A",
"[ 	c #AFA598",
"} 	c #B1A597",
"| 	c #4E4C34",
"1 	c #6C6A4C",
"2 	c #A49B76",
"3 	c #B8AE8D",
"4 	c #BBB296",
"5 	c #B7AF9E",
"6 	c #AFAC9E",
"7 	c #A6A198",
"8 	c #A2A198",
"9 	c #A4ABA8",
"0 	c #A1A2A2",
"a 	c #9D9986",
"b 	c #A6A799",
"c 	c #9D9F8E",
"d 	c #4C534A",
"e 	c #818A7E",
"f 	c #898D7D",
"g 	c #868778",
"h 	c #6E7567",
"i 	c #6E7263",
"j 	c #747866",
"k 	c #656A5A",
"l 	c #6F7461",
"m 	c #677263",
"n 	c #6C7162",
"o 	c #83816E",
"p 	c #837F70",
"q 	c #888775",
"r 	c #7E806D",
"s 	c #807F6E",
"t 	c #787A6A",
"u 	c #8B8470",
"v 	c #8C8671",
"w 	c #837D67",
"x 	c #897D68",
"y 	c #99886B",
"z 	c #958164",
"A 	c #A69174",
"B 	c #AD997C",
"C 	c #B39F82",
"D 	c #A08D74",
"E 	c #827261",
"F 	c #2C2912",
"G 	c #4C4421",
"H 	c #605C3C",
"I 	c #75725D",
"J 	c #838371",
"K 	c #898C83",
"L 	c #929991",
"M 	c #9AA8A1",
"N 	c #ADB7AE",
"O 	c #767960",
"P 	c #8A8C73",
"Q 	c #8B8E7B",
"R 	c #494D3D",
"S 	c #777C65",
"T 	c #747A62",
"U 	c #676952",
"V 	c #666A58",
"W 	c #656A58",
"X 	c #676D58",
"Y 	c #6B6E57",
"Z 	c #69705C",
"` 	c #7D8267",
" .	c #808267",
"..	c #85856A",
"+.	c #818571",
"@.	c #84836E",
"#.	c #7F8169",
"$.	c #888168",
"%.	c #928B70",
"&.	c #A59572",
"*.	c #887C62",
"=.	c #97825C",
"-.	c #94825B",
";.	c #968164",
">.	c #957F64",
",.	c #89745E",
"'.	c #7A654B",
").	c #665946",
"!.	c #120E0A",
"~.	c #15120B",
"{.	c #231E14",
"].	c #312D1C",
"^.	c #3B3926",
"/.	c #494632",
"(.	c #575440",
"_.	c #5A5844",
":.	c #635E43",
"<.	c #6E7059",
"[.	c #717861",
"}.	c #3D3F31",
"|.	c #5E6350",
"1.	c #62664F",
"2.	c #60644D",
"3.	c #59624F",
"4.	c #585F4F",
"5.	c #656D5A",
"6.	c #6B7157",
"7.	c #757B61",
"8.	c #858563",
"9.	c #918D6A",
"0.	c #8C8C73",
"a.	c #807F6B",
"b.	c #88856A",
"c.	c #7A7C68",
"d.	c #8A846B",
"e.	c #A09278",
"f.	c #95876C",
"g.	c #84745C",
"h.	c #8C775E",
"i.	c #988366",
"j.	c #907965",
"k.	c #110E0B",
"l.	c #0F0E09",
"m.	c #120E07",
"n.	c #17130C",
"o.	c #231D12",
"p.	c #2F2816",
"q.	c #383120",
"r.	c #403F2D",
"s.	c #4A4C3C",
"t.	c #2B2D23",
"u.	c #5D6048",
"v.	c #585F47",
"w.	c #5E654B",
"x.	c #596148",
"y.	c #575C47",
"z.	c #636C4D",
"A.	c #5D6954",
"B.	c #6E7A61",
"C.	c #8B9275",
"D.	c #91947B",
"E.	c #8B8D76",
"F.	c #919076",
"G.	c #9B9071",
"H.	c #857E66",
"I.	c #7F7862",
"J.	c #877B67",
"K.	c #847362",
"L.	c #756357",
"M.	c #705E52",
"N.	c #1B160F",
"O.	c #12110D",
"P.	c #29281A",
"Q.	c #54523E",
"R.	c #63664A",
"S.	c #5C5F46",
"T.	c #5C6143",
"U.	c #686D4E",
"V.	c #5E6C58",
"W.	c #717C67",
"X.	c #9FA279",
"Y.	c #AAA989",
"Z.	c #9D9C82",
"`.	c #A7A288",
" +	c #9B8F6F",
".+	c #8A7C5B",
"++	c #7D6E4F",
"@+	c #81705D",
"#+	c #86705D",
"$+	c #0F0D09",
"%+	c #444535",
"&+	c #636954",
"*+	c #66684B",
"=+	c #7E8258",
"-+	c #898E6A",
";+	c #959576",
">+	c #8F9179",
",+	c #9F9E86",
"'+	c #B9B39D",
")+	c #B4A68D",
"!+	c #9A8E75",
"~+	c #8F7C5B",
"{+	c #877152",
"]+	c #79654E",
"^+	c #150E0C",
"/+	c #5D5D49",
"(+	c #7E8363",
"_+	c #86896D",
":+	c #888A6F",
"<+	c #91937E",
"[+	c #9C9D82",
"}+	c #A1A18B",
"|+	c #ABA38D",
"1+	c #A5987D",
"2+	c #887E65",
"3+	c #786A4E",
"4+	c #6B5945",
"5+	c #3E382B",
"6+	c #767F67",
"7+	c #7C8165",
"8+	c #82846C",
"9+	c #91947E",
"0+	c #8D896C",
"a+	c #A09B7C",
"b+	c #929078",
"c+	c #7E785F",
"d+	c #6E684F",
"e+	c #60553D",
"f+	c #83866D",
"g+	c #9A9A78",
"h+	c #9C9C7E",
"i+	c #A4A583",
"j+	c #9A9773",
"k+	c #878C73",
"l+	c #727D66",
"m+	c #5D614B",
"n+	c #4F4F3F",
"o+	c #4E493B",
"p+	c #828670",
"q+	c #93947B",
"r+	c #8F9479",
"s+	c #939777",
"t+	c #85886A",
"u+	c #7D836D",
"v+	c #566051",
"w+	c #4F5847",
"x+	c #464839",
"y+	c #4F4B3E",
"z+	c #888B74",
"A+	c #949778",
"B+	c #93967B",
"C+	c #91967C",
"D+	c #798069",
"E+	c #686F56",
"F+	c #4C5647",
"G+	c #576151",
"H+	c #525947",
"I+	c #595B53",
"J+	c #9B957D",
"K+	c #868A6D",
"L+	c #7A8069",
"M+	c #6E745F",
"N+	c #646C53",
"O+	c #4F5741",
"P+	c #364337",
"Q+	c #445144",
"R+	c #5D6554",
"S+	c #777C72",
"T+	c #6C6854",
"U+	c #96957C",
"V+	c #81826D",
"W+	c #6B7361",
"X+	c #69715A",
"Y+	c #545C47",
"Z+	c #4C513E",
"`+	c #353F30",
" @	c #292E24",
".@	c #555A4D",
"+@	c #99937A",
"@@	c #B5AB9F",
"#@	c #8B857D",
"$@	c #A69A7C",
"%@	c #8C8A71",
"&@	c #9A9882",
"*@	c #596956",
"=@	c #5C6854",
"-@	c #4C5845",
";@	c #3F4B3B",
">@	c #3B402F",
",@	c #2D3126",
"'@	c #2C2E22",
")@	c #8B8269",
"!@	c #B6A691",
"~@	c #726E64",
"{@	c #807150",
"]@	c #AEA283",
"^@	c #A79974",
"/@	c #696F5A",
"(@	c #5E6954",
"_@	c #575E4D",
":@	c #4A5445",
"<@	c #3D4233",
"[@	c #333627",
"}@	c #282B1E",
"|@	c #38392B",
"1@	c #A8997E",
"2@	c #B7A578",
"3@	c #807556",
"4@	c #504B44",
"5@	c #635E51",
"6@	c #736D5F",
"7@	c #928978",
"8@	c #8B8069",
"9@	c #888167",
"0@	c #B09F7C",
"a@	c #707464",
"b@	c #666F5E",
"c@	c #606C5C",
"d@	c #5E6352",
"e@	c #4F5140",
"f@	c #373A2C",
"g@	c #2E3123",
"h@	c #20231A",
"i@	c #353323",
"j@	c #7E7152",
"k@	c #7D705B",
"l@	c #6A6857",
"m@	c #39342D",
"n@	c #746C5C",
"o@	c #7A7363",
"p@	c #756C5A",
"q@	c #AEA48D",
"r@	c #83785A",
"s@	c #443F2D",
"t@	c #A09576",
"u@	c #6E7260",
"v@	c #636553",
"w@	c #555A49",
"x@	c #464A3B",
"y@	c #2A2B22",
"z@	c #1A170F",
"A@	c #16140D",
"B@	c #12130E",
"C@	c #0C0D0A",
"D@	c #58513C",
"E@	c #968A6C",
"F@	c #918266",
"G@	c #7E7660",
"H@	c #555446",
"I@	c #282721",
"J@	c #2C2A23",
"K@	c #272721",
"L@	c #797057",
"M@	c #726940",
"N@	c #342F25",
"O@	c #7E7556",
"P@	c #6B6A54",
"Q@	c #62614D",
"R@	c #535143",
"S@	c #3D3C31",
"T@	c #272A22",
"U@	c #1E1C14",
"V@	c #14130D",
"W@	c #1A1816",
"X@	c #0F0C0B",
"Y@	c #121410",
"Z@	c #29312A",
"`@	c #2B332B",
" #	c #333B33",
".#	c #4B504C",
"+#	c #514B47",
"@#	c #37352F",
"##	c #403C32",
"$#	c #454234",
"%#	c #887F69",
"&#	c #908A79",
"*#	c #837C76",
"=#	c #938C8B",
"-#	c #A69F9A",
";#	c #A6A3A0",
">#	c #ABA5A2",
",#	c #9F9897",
"'#	c #AB9E9B",
")#	c #A69B95",
"!#	c #867F7B",
"~#	c #6A6765",
"{#	c #47423F",
"]#	c #332F2C",
"^#	c #414439",
"/#	c #464A40",
"(#	c #41443B",
"_#	c #98948F",
":#	c #88827F",
"<#	c #3E3D35",
"[#	c #52544C",
"}#	c #686559",
"|#	c #8D8C83",
"1#	c #84837D",
"2#	c #9D9B96",
"3#	c #90908D",
"4#	c #7C7A76",
"5#	c #7C7A73",
"6#	c #98958F",
"7#	c #B7B1A8",
"8#	c #A8A296",
"9#	c #A8A09C",
"0#	c #A49E9B",
"a#	c #ACA5A2",
"b#	c #A49D9D",
"c#	c #ACA8A6",
"d#	c #AFA9A7",
"e#	c #B6AFAD",
"f#	c #D7CCCC",
"g#	c #DACED2",
"h#	c #BDB5B5",
"i#	c #9D968C",
"j#	c #7B7665",
"k#	c #7D785E",
"l#	c #2F2B20",
"m#	c #3F3A28",
"n#	c #575241",
"o#	c #676256",
"p#	c #646153",
"q#	c #83826F",
"r#	c #4E473C",
"s#	c #1C1B16",
"t#	c #292723",
"u#	c #575345",
"v#	c #686352",
"w#	c #696354",
"x#	c #6B6652",
"y#	c #6E6350",
"z#	c #6C6557",
"A#	c #615D55",
"B#	c #6C6D63",
"C#	c #6E6E61",
"D#	c #6A6A5C",
"E#	c #989589",
"F#	c #979289",
"G#	c #AFA593",
"H#	c #928B74",
"I#	c #746F5E",
"J#	c #686453",
"K#	c #262217",
"L#	c #231F14",
"M#	c #494436",
"N#	c #827F73",
"O#	c #817D71",
"P#	c #636054",
"Q#	c #888577",
"R#	c #565248",
"S#	c #323028",
"T#	c #211F1B",
"U#	c #181712",
"V#	c #24201A",
"W#	c #504225",
"X#	c #7F6844",
"Y#	c #7E6E57",
"Z#	c #3E3A31",
"`#	c #6C6860",
" $	c #8A867B",
".$	c #827E73",
"+$	c #7D7E6F",
"@$	c #7E7D6F",
"#$	c #948F8A",
"$$	c #978F7F",
"%$	c #827F6F",
"&$	c #636359",
"*$	c #515147",
"=$	c #1C1811",
"-$	c #252115",
";$	c #4D4A3B",
">$	c #868374",
",$	c #7E7B6D",
"'$	c #5D5A4D",
")$	c #65645B",
"!$	c #494B42",
"~$	c #575244",
"{$	c #736D5D",
"]$	c #5F5A4D",
"^$	c #36332C",
"/$	c #322B1F",
"($	c #373328",
"_$	c #54524C",
":$	c #807970",
"<$	c #827C73",
"[$	c #928C84",
"}$	c #827F77",
"|$	c #7A7A6F",
"1$	c #7F7F71",
"2$	c #86847C",
"3$	c #817E76",
"4$	c #6A6C60",
"5$	c #464943",
"6$	c #44453E",
"7$	c #1B1811",
"8$	c #292519",
"9$	c #585641",
"0$	c #696657",
"a$	c #5D5C50",
"b$	c #54554A",
"c$	c #4F4C44",
"d$	c #565246",
"e$	c #7C7662",
"f$	c #706857",
"g$	c #6B6858",
"h$	c #393224",
"i$	c #28251C",
"j$	c #57574B",
"k$	c #969490",
"l$	c #676A65",
"m$	c #51524B",
"n$	c #515248",
"o$	c #525548",
"p$	c #4B4F46",
"q$	c #302F27",
"r$	c #47453F",
"s$	c #565741",
"t$	c #565A53",
"u$	c #50534D",
"v$	c #221E17",
"w$	c #2B2417",
"x$	c #514C3B",
"y$	c #504B39",
"z$	c #555247",
"A$	c #4D4C41",
"B$	c #545144",
"C$	c #706E5D",
"D$	c #666251",
"E$	c #535344",
"F$	c #3E3E2F",
"G$	c #403927",
"H$	c #67604F",
"I$	c #747366",
"J$	c #9A968F",
"K$	c #8A8782",
"L$	c #494B43",
"M$	c #52544B",
"N$	c #4F5244",
"O$	c #3A3B34",
"P$	c #393A34",
"Q$	c #3E4038",
"R$	c #3D412E",
"S$	c #34362F",
"T$	c #575A54",
"U$	c #40413E",
"V$	c #49483E",
"W$	c #454537",
"X$	c #494941",
"Y$	c #5D5A4B",
"Z$	c #6E6A56",
"`$	c #626052",
" %	c #434436",
".%	c #323429",
"+%	c #444238",
"@%	c #332D1D",
"#%	c #5A5B4D",
"$%	c #717365",
"%%	c #6D6E65",
"&%	c #6A6D63",
"*%	c #4B5046",
"=%	c #3F4038",
"-%	c #3A3D2E",
";%	c #323428",
">%	c #2D2E28",
",%	c #24251E",
"'%	c #212218",
")%	c #23251E",
"!%	c #282B25",
"                                                                                          ",
"                                                                                          ",
"                                  . + @ # $ % & * = - ; > , ' ) ! ~ { ] ^ / ( _ : < [ }   ",
"    | 1 2 3 4 5 6 7 8 9 0 a b c d e f g h i j k l m n o p q r s t u v w x y z A B C D E   ",
"        F G H I J K L M N O P Q R S T U V W X Y Z `  ...+.@.#.$.%.&.*.=.-.;.>.,.'.).      ",
"          !.~.{.].^./.(._.:.<.[.}.|.1.2.3.4.5.6.7.8.9.0.a.b.c.d.e.f.g.h.i.j.              ",
"              k.l.m.n.o.p.q.r.s.t.u.v.w.x.y.z.A.B.C.D.E.F.G.H.I.J.K.L.M.                  ",
"                              N.O.P.Q.R.S.T.U.V.W.X.Y.Z.`. +.+++@+#+                      ",
"                                    $+%+&+*+=+-+;+>+,+'+)+!+~+{+]+                        ",
"                                      ^+/+(+_+:+<+[+}+|+1+2+3+4+                          ",
"                                        5+6+7+8+9+0+a+b+c+d+e+                            ",
"                                          f+g+h+i+j+k+l+m+n+o+                            ",
"                                          p+q+r+s+t+u+v+w+x+y+                            ",
"                                          z+A+B+C+D+E+F+G+H+I+                            ",
"                                          J+K+L+M+N+O+P+Q+R+S+                            ",
"                                        T+U+V+W+X+Y+Z+`+ @.@+@@@                          ",
"                                  #@    $@%@&@*@=@-@;@>@,@'@)@!@                          ",
"                                ~@      {@]@^@/@(@_@:@<@[@}@|@1@2@3@                      ",
"                                4@5@6@7@8@9@0@a@b@c@d@e@f@g@h@i@j@k@l@m@                  ",
"                                n@o@p@q@r@s@t@u@v@w@x@y@z@A@B@C@D@E@F@G@H@                ",
"                                I@J@K@L@M@N@O@P@Q@R@S@T@U@V@W@X@Y@Z@`@ #.#                ",
"                              +#@###$#%#&#*#=#-#;#>#,#'#)#!#~#{#]#^#/#(#_#:#              ",
"                            <#[#}#|#1#2#3#4#5#6#7#8#9#0#a#b#c#d#e#f#g#h#i#j#k#            ",
"                            l#m#n#o#p#q#r#s#t#u#v#w#x#y#z#A#B#C#D#E#F#G#H#I#J#            ",
"                          K#L#M#N#O#P#Q#R#S#T#U#V#W#X#Y#Z#`# $.$+$@$#$$$%$&$*$            ",
"                          =$-$;$>$,$'$)$!$~${$]$^$/$($_$:$<$[$}$|$1$2$3$4$5$6$            ",
"                          7$8$9$0$a$b$c$d$e$f$g$h$i$j$k$l$m$n$o$p$q$r$s$x@t$u$            ",
"                          v$w$x$y$z$A$B$C$D$E$F$G$H$I$J$K$L$M$N$O$P$Q$R$S$T$U$            ",
"                              V$W$X$Y$Z$`$ %.%+%@%#%$%%%&%*%=%-%;%>%,%'%)%!%              ",
"                                                                                          "};
