/* XPM */
static char * arrow_xpm[] = {
"40 40 97 2",
"  	c None",
". 	c #A7A4A2",
"+ 	c #858382",
"@ 	c #8C8986",
"# 	c #686767",
"$ 	c #585652",
"% 	c #A59A8D",
"& 	c #54524E",
"* 	c #8E867D",
"= 	c #9D8F7E",
"- 	c #C8AF95",
"; 	c #786C5E",
"> 	c #C2B099",
", 	c #CFB497",
"' 	c #84807A",
") 	c #9F917E",
"! 	c #8E9888",
"~ 	c #86877D",
"{ 	c #B4B083",
"] 	c #8A957D",
"^ 	c #D6CD6A",
"/ 	c #C9BF53",
"( 	c #EAE372",
"_ 	c #E9D943",
": 	c #DFCA65",
"< 	c #E3D348",
"[ 	c #F1ED9D",
"} 	c #CFC17C",
"| 	c #D7B94B",
"1 	c #EBD973",
"2 	c #CDB156",
"3 	c #E9E06B",
"4 	c #DDBD46",
"5 	c #E9DAAC",
"6 	c #E9E270",
"7 	c #DEC948",
"8 	c #CBB992",
"9 	c #E5D04A",
"0 	c #EFE697",
"a 	c #CDC9AD",
"b 	c #AD9284",
"c 	c #CCAC8D",
"d 	c #BAB3A7",
"e 	c #D0CFC1",
"f 	c #B2A679",
"g 	c #D6CC98",
"h 	c #6C6C6C",
"i 	c #6A6A6A",
"j 	c #818181",
"k 	c #696969",
"l 	c #666666",
"m 	c #6B6B6B",
"n 	c #686868",
"o 	c #7E8081",
"p 	c #696869",
"q 	c #DEB18C",
"r 	c #787069",
"s 	c #969B96",
"t 	c #F5BA7E",
"u 	c #E29350",
"v 	c #8D7553",
"w 	c #C2C18B",
"x 	c #F5B979",
"y 	c #F89E48",
"z 	c #E28942",
"A 	c #8A7256",
"B 	c #BFBA58",
"C 	c #F4F0A2",
"D 	c #F2B26F",
"E 	c #F89940",
"F 	c #DD8641",
"G 	c #877457",
"H 	c #C2BA4F",
"I 	c #F2E167",
"J 	c #F39B4A",
"K 	c #D7863F",
"L 	c #827259",
"M 	c #C2B84F",
"N 	c #EDD943",
"O 	c #F6EE93",
"P 	c #CC844E",
"Q 	c #807058",
"R 	c #C4B84A",
"S 	c #ECD73D",
"T 	c #EFE25C",
"U 	c #6F7065",
"V 	c #C4BA55",
"W 	c #E9D63F",
"X 	c #F2DF61",
"Y 	c #F9F0A7",
"Z 	c #6A6B6E",
"` 	c #E6E39E",
" .	c #B3AF8B",
"..	c #9FA0A2",
"+.	c #F3ED9B",
"@.	c #FAF5B9",
"#.	c #F7F6D6",
"                                                                            .   ",
"                                                                          + @   ",
"                                                                        # $     ",
"                                                                      % &       ",
"                                                                    * =         ",
"                                                                  - ;           ",
"                                                                > ,             ",
"                                                              ' )               ",
"                                                            ! ~                 ",
"                                                          { ]                   ",
"                                                        ^ /                     ",
"                                                      ( _                       ",
"                                                    : < [                       ",
"                                                  } |                           ",
"                                                1 2                             ",
"                                              3 4 5                             ",
"                                            6 7                                 ",
"                                          8 9 0                                 ",
"                                        a b c                                   ",
"                                        d e                                     ",
"                                      f g                                       ",
"                                    h                                           ",
"                                  i                                             ",
"                              j k                                               ",
"                              l                                                 ",
"                            m                                                   ",
"                          n                                                     ",
"                        h                                                       ",
"                    o p                                                         ",
"                  q r s                                                         ",
"              t u v w                                                           ",
"          x y z A B C                                                           ",
"        D E F G H I                                                             ",
"        J K L M N O                                                             ",
"        P Q R S T                                                               ",
"        U V W X Y                                                               ",
"      Z                                                                         ",
"  `  ...                                                                        ",
"  +.@.                                                                          ",
"  #.                                                                            "};
