/* XPM */
static char * cook_xpm[] = {
"34 70 877 2",
"  	c None",
". 	c #E9D8B9",
"+ 	c #EDDFC1",
"@ 	c #EBDBC1",
"# 	c #F4EACD",
"$ 	c #F9EED1",
"% 	c #E9D7BE",
"& 	c #B19872",
"* 	c #EBD7B2",
"= 	c #E5D2AD",
"- 	c #EFDDB5",
"; 	c #F0DEBB",
"> 	c #E9D9B5",
", 	c #F0E0BA",
"' 	c #F0DFBD",
") 	c #CDB59A",
"! 	c #D3AB71",
"~ 	c #DFBB83",
"{ 	c #E1C79E",
"] 	c #F5E8C4",
"^ 	c #F5E8C9",
"/ 	c #F1E4C1",
"( 	c #EDDDB5",
"_ 	c #D9C58F",
": 	c #BE9A6E",
"< 	c #B58A52",
"[ 	c #C59E62",
"} 	c #F1DAB0",
"| 	c #FAF6D3",
"1 	c #FDF8D3",
"2 	c #FCF5CF",
"3 	c #F7EEC4",
"4 	c #EDD9A7",
"5 	c #CAA569",
"6 	c #BC9761",
"7 	c #D4BA8A",
"8 	c #B8A778",
"9 	c #E0C887",
"0 	c #EBCB87",
"a 	c #C7AB72",
"b 	c #B39D73",
"c 	c #A3794C",
"d 	c #C79353",
"e 	c #E8B868",
"f 	c #E1B762",
"g 	c #D9B46B",
"h 	c #D4A25F",
"i 	c #7C532A",
"j 	c #BF8758",
"k 	c #B48253",
"l 	c #DAA153",
"m 	c #B37839",
"n 	c #BC884E",
"o 	c #E0A658",
"p 	c #DFA55B",
"q 	c #D79B5D",
"r 	c #B07038",
"s 	c #E0A566",
"t 	c #D29757",
"u 	c #F4BB6A",
"v 	c #D4944B",
"w 	c #C38E54",
"x 	c #BD8452",
"y 	c #CB8D47",
"z 	c #E9B779",
"A 	c #DFA762",
"B 	c #E6A75A",
"C 	c #D69553",
"D 	c #9B6839",
"E 	c #B67C44",
"F 	c #D59759",
"G 	c #D4934E",
"H 	c #D39248",
"I 	c #BC8D5B",
"J 	c #AA6E44",
"K 	c #B47F55",
"L 	c #B47B58",
"M 	c #A86F48",
"N 	c #B67046",
"O 	c #D09254",
"P 	c #B97D42",
"Q 	c #D38F54",
"R 	c #CF9F6D",
"S 	c #D8B99E",
"T 	c #A66C41",
"U 	c #E3AC70",
"V 	c #D39F6B",
"W 	c #AF7A4F",
"X 	c #CA9E73",
"Y 	c #C89865",
"Z 	c #BC8558",
"` 	c #B9855D",
" .	c #B38059",
"..	c #CC935B",
"+.	c #CBA77C",
"@.	c #CDB897",
"#.	c #E9CBAF",
"$.	c #D8B59B",
"%.	c #C48C56",
"&.	c #E4B168",
"*.	c #D29B5C",
"=.	c #C79B6F",
"-.	c #E3C4A0",
";.	c #E4C9A6",
">.	c #E4C7A8",
",.	c #E7C9AC",
"'.	c #E9CDB0",
").	c #EAD0B1",
"!.	c #E9CBA9",
"~.	c #F3DDBB",
"{.	c #E2CDAD",
"].	c #F0DAB9",
"^.	c #E8D1AF",
"/.	c #DABB9E",
"(.	c #CA9155",
"_.	c #E6B460",
":.	c #D8A458",
"<.	c #EECE9A",
"[.	c #F1E2BC",
"}.	c #F5E3C0",
"|.	c #F9EBCC",
"1.	c #F8E6C9",
"2.	c #FAEACC",
"3.	c #FBEDCD",
"4.	c #F5E6C6",
"5.	c #FAECCD",
"6.	c #F0DFC0",
"7.	c #F7E2C3",
"8.	c #F1DBBA",
"9.	c #E9CDAE",
"0.	c #A7663B",
"a.	c #B07537",
"b.	c #C38745",
"c.	c #E5C494",
"d.	c #F4E4C1",
"e.	c #F1E3C2",
"f.	c #FBEFD0",
"g.	c #FBF1D1",
"h.	c #FCF2D3",
"i.	c #FDF6D7",
"j.	c #FAEFD2",
"k.	c #F9ECCE",
"l.	c #F6E5C6",
"m.	c #F4E0C2",
"n.	c #F1DBBB",
"o.	c #E7CEAD",
"p.	c #BB9E81",
"q.	c #9D6342",
"r.	c #A46742",
"s.	c #B16F3B",
"t.	c #B5783F",
"u.	c #E8C99B",
"v.	c #F6E7C4",
"w.	c #F2E6C3",
"x.	c #F4E5C3",
"y.	c #FBF3D1",
"z.	c #FDF2D3",
"A.	c #FEF5D7",
"B.	c #F9EECF",
"C.	c #F6E6C6",
"D.	c #F5E4C3",
"E.	c #F1DEBF",
"F.	c #F2DEBE",
"G.	c #E3CBAB",
"H.	c #CDAF96",
"I.	c #AA7F56",
"J.	c #BE8A4A",
"K.	c #DBAB6B",
"L.	c #D8BA8D",
"M.	c #F8EBC6",
"N.	c #F3E6C1",
"O.	c #F1E1BA",
"P.	c #FAEFCC",
"Q.	c #FCF1CF",
"R.	c #FCF4D4",
"S.	c #F1E5C4",
"T.	c #EFE0BF",
"U.	c #EFDFBE",
"V.	c #EFDEBD",
"W.	c #EEDBBA",
"X.	c #E7CFAF",
"Y.	c #D6B89E",
"Z.	c #CAA378",
"`.	c #DDBB90",
" +	c #F0D2A6",
".+	c #E3C89A",
"++	c #DBCDA2",
"@+	c #D1C39A",
"#+	c #E6D4A9",
"$+	c #FAEDC6",
"%+	c #F9EFCA",
"&+	c #FDF4D3",
"*+	c #F9EDCD",
"=+	c #ECDDBC",
"-+	c #F2E3C2",
";+	c #F5E5C4",
">+	c #F2DEBC",
",+	c #EBD4B2",
"'+	c #E6CAAD",
")+	c #D1A67B",
"!+	c #EBD1A5",
"~+	c #ECD6AD",
"{+	c #E1C49B",
"]+	c #F1E2BE",
"^+	c #EBD8B1",
"/+	c #E0C79E",
"(+	c #FAECC5",
"_+	c #F9F0CC",
":+	c #FDF6D4",
"<+	c #F4E9C8",
"[+	c #F9ECC9",
"}+	c #F6E8C5",
"|+	c #F3E4C0",
"1+	c #EFDCBB",
"2+	c #E7D1AE",
"3+	c #E4CBA9",
"4+	c #C0A186",
"5+	c #CAA779",
"6+	c #EACFA2",
"7+	c #ECD0A7",
"8+	c #DEBE96",
"9+	c #F3E0BB",
"0+	c #E9D2AF",
"a+	c #E0C2A1",
"b+	c #EFDCBC",
"c+	c #F4E6C5",
"d+	c #FBF3CF",
"e+	c #F3E7C4",
"f+	c #EFE0BC",
"g+	c #F2E2BE",
"h+	c #F2DFBF",
"i+	c #E5CEAB",
"j+	c #E0C6A5",
"k+	c #BB9F84",
"l+	c #B79565",
"m+	c #E6C89F",
"n+	c #E7C89E",
"o+	c #E4C499",
"p+	c #E9D5AD",
"q+	c #E1C8A1",
"r+	c #DABC9A",
"s+	c #E9D3B1",
"t+	c #EFDBB8",
"u+	c #F5E9C7",
"v+	c #F0E3C2",
"w+	c #F0E1BD",
"x+	c #EFDFBA",
"y+	c #F1E0BB",
"z+	c #F2DFBD",
"A+	c #E7CFA4",
"B+	c #E7CCA8",
"C+	c #DEC5AA",
"D+	c #CBA870",
"E+	c #EDD1A2",
"F+	c #E2C395",
"G+	c #E6C79A",
"H+	c #E7CEA2",
"I+	c #D0B688",
"J+	c #EACDA5",
"K+	c #E8D1AB",
"L+	c #E9D5AE",
"M+	c #EBDBB5",
"N+	c #F5E4C1",
"O+	c #E9D6B5",
"P+	c #EBD9B4",
"Q+	c #EFDDBC",
"R+	c #F1DDBB",
"S+	c #E2C585",
"T+	c #DFC18E",
"U+	c #E3CCAE",
"V+	c #CDBA9F",
"W+	c #CAA76D",
"X+	c #D0B278",
"Y+	c #E7CC9D",
"Z+	c #DFC397",
"`+	c #E0CA9B",
" @	c #C4A573",
".@	c #D2B17C",
"+@	c #E4C594",
"@@	c #ECCF9B",
"#@	c #E2C37B",
"$@	c #F0DBA8",
"%@	c #DCC7A2",
"&@	c #E9D6B1",
"*@	c #EEDAB7",
"=@	c #EAD4AD",
"-@	c #D2AD74",
";@	c #D1AF7A",
">@	c #ECD5B3",
",@	c #E2CEB2",
"'@	c #A68852",
")@	c #D1AB6B",
"!@	c #D7B67F",
"~@	c #E1C494",
"{@	c #E5D2A6",
"]@	c #A1885B",
"^@	c #C8A971",
"/@	c #E1BD6A",
"(@	c #D9A84E",
"_@	c #C9973B",
":@	c #C19753",
"<@	c #E5CC9A",
"[@	c #EDD6A4",
"}@	c #E6CA97",
"|@	c #E3C38B",
"1@	c #CDA163",
"2@	c #CCA561",
"3@	c #DDC094",
"4@	c #EAD3B8",
"5@	c #B6A48C",
"6@	c #7B613E",
"7@	c #BF975A",
"8@	c #D3AC71",
"9@	c #DCBD8D",
"0@	c #A99775",
"a@	c #645332",
"b@	c #957748",
"c@	c #AE8A4E",
"d@	c #DFB16D",
"e@	c #E0BA70",
"f@	c #E4C386",
"g@	c #E6C78A",
"h@	c #EACE8F",
"i@	c #E9CF90",
"j@	c #EED092",
"k@	c #D8B06A",
"l@	c #C39947",
"m@	c #DDBD84",
"n@	c #E9D4B9",
"o@	c #D9C5AB",
"p@	c #4F4629",
"q@	c #8E7241",
"r@	c #AA8B58",
"s@	c #8D7656",
"t@	c #604E2E",
"u@	c #946F40",
"v@	c #A17944",
"w@	c #C19854",
"x@	c #CEA963",
"y@	c #E3C174",
"z@	c #E3C075",
"A@	c #E5C57A",
"B@	c #ECCE86",
"C@	c #ECCD85",
"D@	c #C9A164",
"E@	c #BB9149",
"F@	c #DBBD85",
"G@	c #ECDABC",
"H@	c #EEDBBF",
"I@	c #B2A08B",
"J@	c #806539",
"K@	c #B28449",
"L@	c #C19B64",
"M@	c #DCB67B",
"N@	c #CDA767",
"O@	c #DCB571",
"P@	c #E7C17C",
"Q@	c #E2BB73",
"R@	c #DEB36D",
"S@	c #D7AE66",
"T@	c #BD925E",
"U@	c #B08647",
"V@	c #CAA872",
"W@	c #E8D4B4",
"X@	c #ECD8B9",
"Y@	c #E5D4BA",
"Z@	c #6E5B3A",
"`@	c #C7A25E",
" #	c #E6BB76",
".#	c #D9B674",
"+#	c #EED496",
"@#	c #EFD290",
"##	c #DFB26F",
"$#	c #C59650",
"%#	c #B08641",
"&#	c #B68643",
"*#	c #A77739",
"=#	c #A27743",
"-#	c #9B743E",
";#	c #B18E5D",
">#	c #DAC09A",
",#	c #E9D2B1",
"'#	c #F1DABE",
")#	c #C8B69D",
"!#	c #886F41",
"~#	c #D1A452",
"{#	c #DFBC68",
"]#	c #ECCC87",
"^#	c #D5B977",
"/#	c #D8BD7B",
"(#	c #EDCB86",
"_#	c #E5C37B",
":#	c #E5C57F",
"<#	c #E1BC79",
"[#	c #E2B774",
"}#	c #D3AA6A",
"|#	c #9C733B",
"1#	c #8F6E41",
"2#	c #AD916C",
"3#	c #D7BA96",
"4#	c #EAD3B7",
"5#	c #EDD9BB",
"6#	c #9D8B77",
"7#	c #896A3C",
"8#	c #C99959",
"9#	c #D1A558",
"0#	c #E8C37C",
"a#	c #EACD8B",
"b#	c #E8C787",
"c#	c #D0AA66",
"d#	c #D7B066",
"e#	c #E2BB6F",
"f#	c #E7C172",
"g#	c #E2BD6E",
"h#	c #DEB671",
"i#	c #A57945",
"j#	c #805F3A",
"k#	c #B59A74",
"l#	c #DFC6A7",
"m#	c #EDD9BA",
"n#	c #E8D3B8",
"o#	c #A5815E",
"p#	c #896936",
"q#	c #C59553",
"r#	c #D7AB62",
"s#	c #E0B874",
"t#	c #E9C684",
"u#	c #E7C586",
"v#	c #EAC889",
"w#	c #DFBB7A",
"x#	c #D9B26F",
"y#	c #D8AF66",
"z#	c #DDB56A",
"A#	c #DCB469",
"B#	c #A1733D",
"C#	c #836341",
"D#	c #C3A981",
"E#	c #E5CCA4",
"F#	c #DDB889",
"G#	c #D09E6A",
"H#	c #A47548",
"I#	c #806239",
"J#	c #C49650",
"K#	c #D7A860",
"L#	c #DFB26B",
"M#	c #DCAF6A",
"N#	c #D7AB61",
"O#	c #DEB26D",
"P#	c #E6BE77",
"Q#	c #DDB46F",
"R#	c #DBAD62",
"S#	c #CEA152",
"T#	c #9D6E40",
"U#	c #785636",
"V#	c #A5835A",
"W#	c #A2673F",
"X#	c #AD6638",
"Y#	c #BF834D",
"Z#	c #B48251",
"`#	c #544529",
" $	c #B9954F",
".$	c #C09144",
"+$	c #DEB562",
"@$	c #E8C175",
"#$	c #DBB368",
"$$	c #D5AB5C",
"%$	c #D7A95C",
"&$	c #D4A657",
"*$	c #DFB164",
"=$	c #E0B166",
"-$	c #BE904F",
";$	c #835632",
">$	c #936148",
",$	c #9B5C43",
"'$	c #96593A",
")$	c #9F613E",
"!$	c #A67250",
"~$	c #514E3C",
"{$	c #75633C",
"]$	c #D1A661",
"^$	c #B78E42",
"/$	c #D1AB5C",
"($	c #E3C06E",
"_$	c #E1BA6C",
":$	c #DDB368",
"<$	c #DCB265",
"[$	c #D3A85A",
"}$	c #D0A356",
"|$	c #D1A565",
"1$	c #8C6039",
"2$	c #856344",
"3$	c #885F48",
"4$	c #71482F",
"5$	c #915A3F",
"6$	c #9B6847",
"7$	c #514C3C",
"8$	c #9B7E4E",
"9$	c #D4AA68",
"0$	c #C89C5A",
"a$	c #C0974D",
"b$	c #CCA15C",
"c$	c #D6AA61",
"d$	c #D7AD66",
"e$	c #D8AE67",
"f$	c #D3A75F",
"g$	c #CAA05F",
"h$	c #84582E",
"i$	c #91734B",
"j$	c #55524A",
"k$	c #584C39",
"l$	c #B08D5B",
"m$	c #DBAE6A",
"n$	c #E0B372",
"o$	c #D4A465",
"p$	c #C99859",
"q$	c #C18F50",
"r$	c #CC9B5A",
"s$	c #D1A163",
"t$	c #CEA767",
"u$	c #AE885B",
"v$	c #896B42",
"w$	c #5A5B50",
"x$	c #595950",
"y$	c #60533D",
"z$	c #A0804E",
"A$	c #D1A25D",
"B$	c #DBAA6A",
"C$	c #D6A667",
"D$	c #D1A160",
"E$	c #DAA968",
"F$	c #D7A86C",
"G$	c #E5C081",
"H$	c #B38C5E",
"I$	c #A27D55",
"J$	c #595756",
"K$	c #5B5E5C",
"L$	c #5A5D53",
"M$	c #5C503A",
"N$	c #A98854",
"O$	c #D8AC67",
"P$	c #E5BB74",
"Q$	c #DFB771",
"R$	c #DAAD6A",
"S$	c #DDB571",
"T$	c #E9C786",
"U$	c #D8B179",
"V$	c #B78F60",
"W$	c #595752",
"X$	c #59585F",
"Y$	c #565755",
"Z$	c #615F5A",
"`$	c #5D5041",
" %	c #9C7E4C",
".%	c #D9B16B",
"+%	c #E1BB72",
"@%	c #DFB86E",
"#%	c #DBB56B",
"$%	c #E0BD78",
"%%	c #DCB56F",
"&%	c #CCA36A",
"*%	c #594F48",
"=%	c #5F5C58",
"-%	c #565554",
";%	c #565551",
">%	c #5B574F",
",%	c #504532",
"'%	c #7F693C",
")%	c #C29E5A",
"!%	c #DCB669",
"~%	c #DEB673",
"{%	c #DEB777",
"]%	c #DAB16A",
"^%	c #C69D5F",
"/%	c #544F44",
"(%	c #54504A",
"_%	c #5A5453",
":%	c #504A3F",
"<%	c #4E4737",
"[%	c #4B4433",
"}%	c #634F2A",
"|%	c #B69456",
"1%	c #DFB876",
"2%	c #D8AB68",
"3%	c #C59A5F",
"4%	c #946F46",
"5%	c #5E5952",
"6%	c #524D46",
"7%	c #58554F",
"8%	c #54514A",
"9%	c #524D43",
"0%	c #504A3E",
"a%	c #484230",
"b%	c #816940",
"c%	c #C7A35D",
"d%	c #D0A762",
"e%	c #D3A762",
"f%	c #CB9D5D",
"g%	c #C39361",
"h%	c #544F4B",
"i%	c #55504B",
"j%	c #57534A",
"k%	c #5C594E",
"l%	c #575347",
"m%	c #4C4633",
"n%	c #484534",
"o%	c #4D4330",
"p%	c #876D3E",
"q%	c #CA9D5F",
"r%	c #DBAE6F",
"s%	c #D2A567",
"t%	c #B98F5C",
"u%	c #554F47",
"v%	c #4F4841",
"w%	c #524C44",
"x%	c #4C483E",
"y%	c #514A40",
"z%	c #4E4232",
"A%	c #45402C",
"B%	c #464131",
"C%	c #584A2C",
"D%	c #AC884F",
"E%	c #CA9D5D",
"F%	c #C39454",
"G%	c #B58B58",
"H%	c #524739",
"I%	c #4F453A",
"J%	c #59524A",
"K%	c #4C4A45",
"L%	c #544D42",
"M%	c #5B4A31",
"N%	c #483E2C",
"O%	c #4C4538",
"P%	c #49412D",
"Q%	c #81613A",
"R%	c #AE8345",
"S%	c #C3934E",
"T%	c #B38953",
"U%	c #5F4B38",
"V%	c #53493C",
"W%	c #484036",
"X%	c #4C453B",
"Y%	c #41423B",
"Z%	c #484232",
"`%	c #655131",
" &	c #4B3F2B",
".&	c #534D3F",
"+&	c #5C5548",
"@&	c #67523A",
"#&	c #B38C53",
"$&	c #C29249",
"%&	c #BE9255",
"&&	c #524937",
"*&	c #4B4438",
"=&	c #4C473F",
"-&	c #484843",
";&	c #4C4031",
">&	c #6E5631",
",&	c #52432C",
"'&	c #4A473C",
")&	c #575049",
"!&	c #50473B",
"~&	c #755B37",
"{&	c #BB914F",
"]&	c #C59857",
"^&	c #564D38",
"/&	c #53524C",
"(&	c #484740",
"_&	c #5A4931",
":&	c #775B33",
"<&	c #5C482A",
"[&	c #454037",
"}&	c #565555",
"|&	c #4C4B47",
"1&	c #4E4335",
"2&	c #84653F",
"3&	c #B89059",
"4&	c #947453",
"5&	c #625945",
"6&	c #524D42",
"7&	c #51514A",
"8&	c #49473A",
"9&	c #624D2D",
"0&	c #82653E",
"a&	c #675031",
"b&	c #4D4537",
"c&	c #52554F",
"d&	c #51524F",
"e&	c #5F5A53",
"f&	c #5D492F",
"g&	c #8F7045",
"h&	c #90734F",
"i&	c #614A2C",
"j&	c #5F5137",
"k&	c #5B5440",
"l&	c #504B3B",
"m&	c #514431",
"n&	c #6B4A25",
"o&	c #8E7149",
"p&	c #705838",
"q&	c #53432C",
"r&	c #5C503B",
"s&	c #5A4F38",
"t&	c #64573F",
"u&	c #6E5B3B",
"v&	c #6B4F2E",
"w&	c #84673E",
"x&	c #584329",
"y&	c #574A32",
"z&	c #5D5239",
"A&	c #534831",
"B&	c #574027",
"C&	c #714C26",
"D&	c #957851",
"E&	c #7E6544",
"F&	c #503F2F",
"G&	c #5B4C45",
"H&	c #5E4D44",
"I&	c #604F3B",
"J&	c #8E7859",
"K&	c #A28966",
"L&	c #8D6E47",
"M&	c #54412C",
"N&	c #4C4332",
"O&	c #504332",
"P&	c #4E4533",
"Q&	c #5D462A",
"R&	c #A38359",
"S&	c #8D714D",
"T&	c #564534",
"U&	c #564843",
"V&	c #584B49",
"W&	c #574B41",
"X&	c #8D795E",
"Y&	c #AE956D",
"Z&	c #533C20",
"`&	c #4A4030",
" *	c #4C3E32",
".*	c #4E4336",
"+*	c #5D472C",
"@*	c #917347",
"#*	c #91744C",
"$*	c #52422A",
"%*	c #53483F",
"&*	c #534744",
"**	c #544840",
"=*	c #806748",
"-*	c #6C512D",
";*	c #4E4331",
">*	c #4F4237",
",*	c #4D4237",
"'*	c #5F472F",
")*	c #72502A",
"!*	c #846439",
"~*	c #9B7C54",
"{*	c #5F4A2E",
"]*	c #514738",
"^*	c #584845",
"/*	c #574741",
"(*	c #6F4F36",
"_*	c #7C5D2F",
":*	c #493A25",
"<*	c #4A3F2C",
"[*	c #4E4231",
"}*	c #644A2C",
"|*	c #A17A49",
"1*	c #A8885B",
"2*	c #7A5F3E",
"3*	c #4D412F",
"4*	c #54443D",
"5*	c #55463C",
"6*	c #49371D",
"7*	c #4E4030",
"8*	c #504431",
"9*	c #6A4E2E",
"0*	c #AF9162",
"a*	c #9D7A52",
"b*	c #594329",
"c*	c #504135",
"d*	c #544739",
"e*	c #6A5137",
"f*	c #503F28",
"g*	c #493D2C",
"h*	c #4E402D",
"i*	c #6B492C",
"j*	c #AC8C5D",
"k*	c #A3784D",
"l*	c #6B4B2C",
"m*	c #504233",
"n*	c #4F3F32",
"o*	c #694E38",
"p*	c #57432B",
"q*	c #4E422D",
"r*	c #53412A",
"s*	c #966D3E",
"t*	c #7C512A",
"u*	c #66462C",
"v*	c #503F33",
"w*	c #524339",
"x*	c #62483A",
"y*	c #574020",
"z*	c #4F432A",
"A*	c #56432E",
"B*	c #53402B",
"C*	c #554737",
"D*	c #60493B",
"E*	c #554736",
"F*	c #564939",
"G*	c #6C4F35",
"H*	c #594635",
"I*	c #56463D",
"J*	c #58483F",
"K*	c #775337",
"L*	c #5E4529",
"M*	c #514131",
"N*	c #564639",
"O*	c #664831",
"P*	c #584634",
"Q*	c #51443B",
"R*	c #4D4339",
"S*	c #664F3C",
"T*	c #584636",
"U*	c #594840",
"V*	c #684836",
"W*	c #504232",
"X*	c #4E463B",
"Y*	c #534A3B",
"Z*	c #5B5144",
"`*	c #675041",
" =	c #866B52",
".=	c #5A4B3A",
"+=	c #5D4D42",
"@=	c #59412F",
"#=	c #65482E",
"$=	c #48412F",
"%=	c #4A4233",
"&=	c #444130",
"*=	c #4B4636",
"==	c #4E4434",
"-=	c #766C58",
";=	c #6E5D40",
">=	c #6A502F",
",=	c #7F5E36",
"'=	c #4A422F",
")=	c #4C4231",
"!=	c #524934",
"~=	c #694A2C",
"{=	c #624B2B",
"]=	c #45422C",
"^=	c #47402F",
"/=	c #464332",
"(=	c #484634",
"_=	c #4A4633",
":=	c #524D36",
"<=	c #61543F",
"[=	c #7C6E5B",
"}=	c #645540",
"|=	c #433C29",
"1=	c #413D28",
"2=	c #433F2B",
"3=	c #4F3F1C",
"4=	c #7D5C2E",
"5=	c #644D2B",
"6=	c #68512F",
"7=	c #71593A",
"8=	c #745D3E",
"9=	c #6A5435",
"0=	c #645033",
"a=	c #695437",
"b=	c #5E492A",
"c=	c #6E5636",
"d=	c #775732",
"e=	c #483F2E",
"f=	c #4F4534",
"g=	c #514127",
"h=	c #856235",
"i=	c #60472C",
"j=	c #6E5536",
"                                                                    ",
"                                                                    ",
"                      . + @ # $ %                                   ",
"                  & * = - ; > , ' )                                 ",
"                  ! ~ { ] $ ^ / ( _ :                               ",
"                  < [ } | 1 2 3 4 5                                 ",
"                    6 7 8 9 0 a b c                                 ",
"                      d e f g h i j                                 ",
"                      k l m n o p q                                 ",
"                        r s t u v w                                 ",
"                      x y z A B C                                   ",
"                        D E F G H I                                 ",
"        J K   L         M N O P Q R S                               ",
"            T U V W   X Y Z `  ...+.@.#.$.                          ",
"            %.&.*.=.-.;.>.,.'.).!.~.{.].^./.                        ",
"            (._.:.<.[.}.|.1.2.3.4.5.6.7.8.9.                        ",
"            0.a.b.c.d.e.f.g.h.i.j.k.l.m.n.o.p.                      ",
"          q.r.s.t.u.v.w.x.y.z.A.B.C.D.E.F.G.H.                      ",
"            I.J.K.L.M.N.O.P.Q.R.S.T.U.V.W.X.Y.                      ",
"            Z.`. +.+++@+#+$+%+&+*+=+-+;+>+,+'+                      ",
"            )+!+~+{+]+^+/+(+_+:+<+[+}+|+1+2+3+4+                    ",
"            5+6+7+8+9+0+a+b+c+d+e+/ f+g+h+i+j+k+                    ",
"            l+m+n+o+p+q+r+s+t+u+v+w+x+y+z+A+B+C+                    ",
"            D+E+F+G+H+I+J+K+L+M+N+O+P+Q+R+S+T+U+V+                  ",
"            W+X+Y+Z+`+ @.@+@@@#@$@%@&@*@=@-@;@>@,@                  ",
"            '@)@!@~@{@]@^@/@(@_@:@<@[@}@|@1@2@3@4@5@                ",
"            6@7@8@9@0@a@b@c@d@e@f@g@h@i@j@k@l@m@n@o@                ",
"            p@q@r@s@  t@u@v@w@x@y@z@A@B@C@D@E@F@G@H@I@              ",
"                      J@K@L@M@N@O@P@Q@R@S@T@U@V@W@X@Y@              ",
"                    Z@`@ #.#+#@###$#%#&#*#=#-#;#>#,#'#)#            ",
"                    !#~#{#]#^#/#(#_#:#<#[#}#|#1#2#3#4#5#6#          ",
"                    7#8#9#0#a#b#c#d#e#f#g#h#i#j#  k#l#m#n#o#        ",
"                    p#q#r#s#t#u#v#w#x#y#z#A#B#C#    D#E#F#G#H#      ",
"                    I#J#K#L#M#N#O#Q@P#Q#R#S#T#U#      V#W#X#Y#Z#    ",
"                    `# $.$+$@$#$$$%$&$*$=$-$;$          >$,$'$)$!$  ",
"                    ~${$]$^$/$($_$:$<$[$}$|$1$2$          3$4$5$6$  ",
"                      7$8$9$0$a$b$c$d$e$f$g$h$i$                    ",
"                      j$k$l$m$n$o$p$q$r$s$t$u$v$                    ",
"                      w$x$y$z$A$B$C$D$E$F$G$H$I$                    ",
"                      J$K$L$M$N$O$P$Q$R$S$T$U$V$                    ",
"                      W$X$Y$Z$`$ %.%+%@%#%$%%%&%                    ",
"                      *%=%-%;%>%,%'%)%!%~%{%]%^%                    ",
"                        /%(%_%:%<%[%}%|%1%1%2%3%4%                  ",
"                        5%6%7%8%9%0%a%b%c%d%e%f%g%                  ",
"                        h%i%j%k%l%m%n%o%p%q%r%s%t%                  ",
"                        u%v%w%x%y%z%A%B%C%D%E%F%G%                  ",
"                        H%I%J%K%L%M%N%O%P%Q%R%S%T%                  ",
"                      U%V%W%X%Y%Z%`% &.&+&@&#&$&%&                  ",
"                        &&*&=&-&;&>&,&'&)&!&~&{&]&                  ",
"                        ^&.&/&(&_&:&<&[&}&|&1&2&3&4&                ",
"                        5&6&7&8&9&0&a&b&c&d&e&f&g&h&                ",
"                      i&j&k&l&m&n&o&p&q&r&s&t&u&v&w&                ",
"                      x&y&z&A&B&C&D&E&F&G&H&I&J&K&L&                ",
"                      M&N&O&P&Q&  R&S&T&U&V&W&X&Y&                  ",
"                      Z&`& *.*+*  @*#*$*%*&***=*                    ",
"                      -*;*>*,*'*)*!*~*{*]*^*/*(*                    ",
"                      _*:*<*[*}*  |*1*2*3*4*5*                      ",
"                        6*7*8*9*    0*a*b*c*d*e*                    ",
"                        f*g*h*i*    j*k*l*m*n*o*                    ",
"                        p*q*r*      s*t*u*v*w*x*                    ",
"                        y*z*A*            B*C*D*                    ",
"                          E*F*G*          H*I*J*K*                  ",
"                        L*M*N*O*          P*Q*R*S*                  ",
"                          T*U*V*          W*X*Y*Z*`* =              ",
"                          .=+=@=        #=$=%=&=*===-=;=>=,=        ",
"                          '=)=!=~=      {=]=^=/=(=_=:=<=[=}=        ",
"                          |=1=2=3=      4=5=6=7=8=9=0=a=b=c=d=      ",
"                          f*e=f=g=h=                                ",
"                              i=j=                                  ",
"                                                                    "};
