/* XPM */
static char * crucifix_xpm[] = {
"41 60 838 2",
"  	c None",
". 	c #6D4E3D",
"+ 	c #885741",
"@ 	c #94664E",
"# 	c #8D5A3F",
"$ 	c #885137",
"% 	c #844F35",
"& 	c #593F33",
"* 	c #5F3C31",
"= 	c #5D2F1E",
"- 	c #6E271C",
"; 	c #70281B",
"> 	c #6B261B",
", 	c #6D261B",
"' 	c #732E1B",
") 	c #4F2F20",
"! 	c #684335",
"~ 	c #683520",
"{ 	c #73291C",
"] 	c #77291E",
"^ 	c #72291B",
"/ 	c #71291B",
"( 	c #7A321F",
"_ 	c #543321",
": 	c #643F31",
"< 	c #68351F",
"[ 	c #792D1D",
"} 	c #7E2C1D",
"| 	c #782A1A",
"1 	c #762A1A",
"2 	c #7C341C",
"3 	c #5D3823",
"4 	c #664030",
"5 	c #65341E",
"6 	c #78311E",
"7 	c #7C341E",
"8 	c #7E341D",
"9 	c #803520",
"0 	c #853C21",
"a 	c #623A25",
"b 	c #6A4534",
"c 	c #4E2D1E",
"d 	c #52331E",
"e 	c #2E1B15",
"f 	c #301D18",
"g 	c #281614",
"h 	c #58351D",
"i 	c #613B24",
"j 	c #694436",
"k 	c #4E2E1F",
"l 	c #492F1D",
"m 	c #0B0811",
"n 	c #0B0913",
"o 	c #0D0710",
"p 	c #59381F",
"q 	c #683F25",
"r 	c #75503D",
"s 	c #56351F",
"t 	c #4A301D",
"u 	c #0C0913",
"v 	c #0B0916",
"w 	c #0D0711",
"x 	c #5A3920",
"y 	c #734728",
"z 	c #5B3620",
"A 	c #4C311F",
"B 	c #0D0A14",
"C 	c #0D0B17",
"D 	c #0F0B16",
"E 	c #5F3E24",
"F 	c #714627",
"G 	c #654128",
"H 	c #4F3523",
"I 	c #0C0B15",
"J 	c #0E0C19",
"K 	c #100B17",
"L 	c #634125",
"M 	c #794D29",
"N 	c #6A4628",
"O 	c #523822",
"P 	c #0E0B17",
"Q 	c #17121C",
"R 	c #0E0C17",
"S 	c #604028",
"T 	c #83542D",
"U 	c #A3754B",
"V 	c #704C2C",
"W 	c #543924",
"X 	c #100D19",
"Y 	c #110F1B",
"Z 	c #0F0D17",
"` 	c #5E4127",
" .	c #825229",
"..	c #A77F53",
"+.	c #A0734A",
"@.	c #956A3F",
"#.	c #865C36",
"$.	c #66492C",
"%.	c #17111A",
"&.	c #120F1C",
"*.	c #100E19",
"=.	c #60432A",
"-.	c #A86F35",
";.	c #986C40",
">.	c #9C6F45",
",.	c #825B41",
"'.	c #986E48",
").	c #9D744D",
"!.	c #9D754C",
"~.	c #A17E54",
"{.	c #A48057",
"].	c #A98155",
"^.	c #AC8558",
"/.	c #B18755",
"(.	c #B18A5D",
"_.	c #B5956B",
":.	c #AE8B60",
"<.	c #B28C5D",
"[.	c #A57A4E",
"}.	c #AA804F",
"|.	c #C0965D",
"1.	c #BE9961",
"2.	c #BD9359",
"3.	c #957146",
"4.	c #271E21",
"5.	c #130E18",
"6.	c #694C30",
"7.	c #A86C31",
"8.	c #976436",
"9.	c #8E6237",
"0.	c #A37A47",
"a.	c #A37A4A",
"b.	c #A98351",
"c.	c #A1774B",
"d.	c #9C7045",
"e.	c #976F47",
"f.	c #936941",
"g.	c #906641",
"h.	c #9A6C41",
"i.	c #936A43",
"j.	c #8F6541",
"k.	c #91613E",
"l.	c #8D5E3D",
"m.	c #78472C",
"n.	c #9A6939",
"o.	c #7D5A3C",
"p.	c #7F5D3F",
"q.	c #8D6847",
"r.	c #846140",
"s.	c #715134",
"t.	c #765537",
"u.	c #765536",
"v.	c #785637",
"w.	c #7C5A3A",
"x.	c #7B5B3B",
"y.	c #755235",
"z.	c #775334",
"A.	c #B08552",
"B.	c #D9B87B",
"C.	c #E7C482",
"D.	c #E4BC77",
"E.	c #DFB974",
"F.	c #CFAB6D",
"G.	c #956D44",
"H.	c #1B141B",
"I.	c #775732",
"J.	c #755532",
"K.	c #69492D",
"L.	c #7C5D38",
"M.	c #7B5B37",
"N.	c #785836",
"O.	c #7A5C38",
"P.	c #795836",
"Q.	c #745233",
"R.	c #6B4B2D",
"S.	c #67442C",
"T.	c #634028",
"U.	c #5D3D25",
"V.	c #5E3E29",
"W.	c #563829",
"X.	c #5A3C2C",
"Y.	c #7C4E2F",
"Z.	c #9B6334",
"`.	c #A3733A",
" +	c #6F4C2F",
".+	c #6C4E33",
"++	c #6C513C",
"@+	c #3F2D28",
"#+	c #392A27",
"$+	c #3B2B28",
"%+	c #372828",
"&+	c #372728",
"*+	c #382929",
"=+	c #38292A",
"-+	c #382926",
";+	c #765538",
">+	c #C9A162",
",+	c #D8B172",
"'+	c #C0945E",
")+	c #9C7149",
"!+	c #A88253",
"~+	c #D3AA6A",
"{+	c #C1975A",
"]+	c #503B2E",
"^+	c #241C20",
"/+	c #261D23",
"(+	c #231A21",
"_+	c #19141A",
":+	c #120D15",
"<+	c #140F13",
"[+	c #553E2E",
"}+	c #281D1D",
"|+	c #0B0713",
"1+	c #080611",
"2+	c #0E0A12",
"3+	c #181419",
"4+	c #3C3431",
"5+	c #56453B",
"6+	c #5A3B2C",
"7+	c #8C5C3A",
"8+	c #A06A38",
"9+	c #A7773E",
"0+	c #462E21",
"a+	c #3A261E",
"b+	c #59412E",
"c+	c #675240",
"d+	c #63554D",
"e+	c #463B3E",
"f+	c #342B33",
"g+	c #211B29",
"h+	c #1A1729",
"i+	c #1A152A",
"j+	c #181222",
"k+	c #8C653F",
"l+	c #D3AA69",
"m+	c #C0945B",
"n+	c #8A5C38",
"o+	c #865938",
"p+	c #6F4933",
"q+	c #B58F57",
"r+	c #CFAA6A",
"s+	c #795B3B",
"t+	c #14101B",
"u+	c #171522",
"v+	c #191421",
"w+	c #100E1B",
"x+	c #0D0B18",
"y+	c #201B21",
"z+	c #4E443F",
"A+	c #5C5047",
"B+	c #614F3E",
"C+	c #6D5B48",
"D+	c #65503F",
"E+	c #362B26",
"F+	c #302020",
"G+	c #1B1017",
"H+	c #3E271F",
"I+	c #A46E39",
"J+	c #A7763C",
"K+	c #362422",
"L+	c #150A1A",
"M+	c #1A131D",
"N+	c #1C151B",
"O+	c #493A2E",
"P+	c #826B50",
"Q+	c #A9957C",
"R+	c #A8957E",
"S+	c #735F4F",
"T+	c #524546",
"U+	c #42383B",
"V+	c #906A45",
"W+	c #C89D5A",
"X+	c #A17544",
"Y+	c #987F59",
"Z+	c #937C57",
"`+	c #694C2F",
" @	c #6D4A31",
".@	c #AA8451",
"+@	c #735538",
"@@	c #453A34",
"#@	c #65594D",
"$@	c #53493B",
"%@	c #4D443C",
"&@	c #6B5E51",
"*@	c #867761",
"=@	c #867456",
"-@	c #9A8969",
";@	c #998869",
">@	c #856F52",
",@	c #4A382E",
"'@	c #20161C",
")@	c #0B0814",
"!@	c #090613",
"~@	c #0B0714",
"{@	c #080512",
"]@	c #33211E",
"^@	c #A3723F",
"/@	c #A3783E",
"(@	c #563B2B",
"_@	c #3C2820",
":@	c #443028",
"<@	c #3F2E28",
"[@	c #3F2D25",
"}@	c #443125",
"|@	c #6C5032",
"1@	c #856D4D",
"2@	c #847258",
"3@	c #7B674C",
"4@	c #836F53",
"5@	c #8C775A",
"6@	c #8E7859",
"7@	c #785F41",
"8@	c #715434",
"9@	c #8C734A",
"0@	c #62492E",
"a@	c #5C3E29",
"b@	c #61452D",
"c@	c #84704C",
"d@	c #BBA47D",
"e@	c #9B8860",
"f@	c #866E42",
"g@	c #816D49",
"h@	c #695738",
"i@	c #5B4A2E",
"j@	c #675134",
"k@	c #665139",
"l@	c #644A33",
"m@	c #563E2A",
"n@	c #4B3427",
"o@	c #4B3227",
"p@	c #4E3428",
"q@	c #4C3729",
"r@	c #493026",
"s@	c #412821",
"t@	c #62402A",
"u@	c #875F40",
"v@	c #745234",
"w@	c #775638",
"x@	c #684B32",
"y@	c #694C36",
"z@	c #694A33",
"A@	c #6D4D38",
"B@	c #6C4F37",
"C@	c #6D5037",
"D@	c #705239",
"E@	c #6C5138",
"F@	c #684B34",
"G@	c #7C5B33",
"H@	c #865C2D",
"I@	c #7A542E",
"J@	c #69462D",
"K@	c #513326",
"L@	c #654A31",
"M@	c #58422C",
"N@	c #775E3F",
"O@	c #8E704E",
"P@	c #A1906B",
"Q@	c #806A48",
"R@	c #755635",
"S@	c #906739",
"T@	c #89643C",
"U@	c #87663D",
"V@	c #8E6538",
"W@	c #88623A",
"X@	c #81623D",
"Y@	c #85663E",
"Z@	c #866841",
"`@	c #896A43",
" #	c #846240",
".#	c #835E3F",
"+#	c #856442",
"@#	c #7F5C3F",
"##	c #805B3E",
"$#	c #7F573C",
"%#	c #7D5746",
"&#	c #6E4F3F",
"*#	c #86624A",
"=#	c #89674D",
"-#	c #876347",
";#	c #88664A",
">#	c #835F45",
",#	c #866145",
"'#	c #8D674A",
")#	c #896548",
"!#	c #826043",
"~#	c #8A6343",
"{#	c #A77844",
"]#	c #C08B48",
"^#	c #9C6F44",
"/#	c #7C5234",
"(#	c #6F482E",
"_#	c #A28B66",
":#	c #A59376",
"<#	c #B6A78A",
"[#	c #C3B29A",
"}#	c #A89779",
"|#	c #5A4632",
"1#	c #9B6E3B",
"2#	c #845732",
"3#	c #805634",
"4#	c #A37948",
"5#	c #B8884C",
"6#	c #886243",
"7#	c #5D402E",
"8#	c #614232",
"9#	c #694638",
"0#	c #69493A",
"a#	c #6B4B3D",
"b#	c #6C4B40",
"c#	c #614339",
"d#	c #5F443D",
"e#	c #9A704A",
"f#	c #B38959",
"g#	c #B58757",
"h#	c #855533",
"i#	c #7D5232",
"j#	c #BAA685",
"k#	c #B5A78F",
"l#	c #B7A891",
"m#	c #C7B7A0",
"n#	c #8E7F66",
"o#	c #483729",
"p#	c #9F7443",
"q#	c #7C5030",
"r#	c #7D5231",
"s#	c #A87A4B",
"t#	c #AE804F",
"u#	c #9A7146",
"v#	c #9D7047",
"w#	c #A6764D",
"x#	c #764B2E",
"y#	c #7B4F33",
"z#	c #B39C78",
"A#	c #B0A183",
"B#	c #B7A98E",
"C#	c #B8AA91",
"D#	c #82745C",
"E#	c #4D3C2D",
"F#	c #986A39",
"G#	c #794E30",
"H#	c #7F5430",
"I#	c #976B3D",
"J#	c #9E6F40",
"K#	c #BA8B57",
"L#	c #A6784E",
"M#	c #815233",
"N#	c #835837",
"O#	c #BEA588",
"P#	c #C3B7A0",
"Q#	c #C5BCA4",
"R#	c #BFB599",
"S#	c #9B8B71",
"T#	c #554535",
"U#	c #9A6E40",
"V#	c #855833",
"W#	c #835633",
"X#	c #976C40",
"Y#	c #AE7F49",
"Z#	c #B68851",
"`#	c #AB7E53",
" $	c #815335",
".$	c #835736",
"+$	c #BD9C7E",
"@$	c #BFB198",
"#$	c #C3B69D",
"$$	c #C1B49A",
"%$	c #9E8D71",
"&$	c #514434",
"*$	c #966C3F",
"=$	c #71482F",
"-$	c #745032",
";$	c #9A7042",
">$	c #B2844D",
",$	c #B48751",
"'$	c #B08357",
")$	c #915F39",
"!$	c #895C39",
"~$	c #AA9476",
"{$	c #A79F8C",
"]$	c #B0A58D",
"^$	c #AEA28A",
"/$	c #998C73",
"($	c #504238",
"_$	c #9B7443",
":$	c #774E2F",
"<$	c #714B30",
"[$	c #9F7547",
"}$	c #B6894E",
"|$	c #B78951",
"1$	c #B3885A",
"2$	c #9B693E",
"3$	c #8B5D3B",
"4$	c #967C5E",
"5$	c #A29A88",
"6$	c #A7A08A",
"7$	c #99917D",
"8$	c #847C63",
"9$	c #56493F",
"0$	c #997040",
"a$	c #835732",
"b$	c #795232",
"c$	c #A07042",
"d$	c #B4864D",
"e$	c #B98E55",
"f$	c #AF8659",
"g$	c #91603B",
"h$	c #906139",
"i$	c #957350",
"j$	c #B6A895",
"k$	c #BBB19D",
"l$	c #AAA393",
"m$	c #78715A",
"n$	c #5E4E43",
"o$	c #A27B4A",
"p$	c #895C36",
"q$	c #885D36",
"r$	c #A37647",
"s$	c #BB8F56",
"t$	c #B78D5D",
"u$	c #AF8255",
"v$	c #96643D",
"w$	c #91633E",
"x$	c #9E8263",
"y$	c #C3B59F",
"z$	c #BBAD97",
"A$	c #B6AB9D",
"B$	c #928871",
"C$	c #70614F",
"D$	c #A07A4C",
"E$	c #8E623A",
"F$	c #8F613A",
"G$	c #9F7546",
"H$	c #BD9158",
"I$	c #BD915C",
"J$	c #AF8252",
"K$	c #93643B",
"L$	c #986C44",
"M$	c #998162",
"N$	c #AD9E85",
"O$	c #B6A88E",
"P$	c #A0947E",
"Q$	c #918570",
"R$	c #80775D",
"S$	c #936E45",
"T$	c #8C603A",
"U$	c #8C633D",
"V$	c #A97C47",
"W$	c #BF9758",
"X$	c #AE8252",
"Y$	c #93623D",
"Z$	c #A07B54",
"`$	c #A19279",
" %	c #938875",
".%	c #928673",
"+%	c #948879",
"@%	c #958C78",
"#%	c #756C59",
"$%	c #7F5C3D",
"%%	c #7F5737",
"&%	c #8C613A",
"*%	c #AD804D",
"=%	c #C29C60",
"-%	c #AE8251",
";%	c #99683F",
">%	c #9F7D5B",
",%	c #A59680",
"'%	c #89806E",
")%	c #978D80",
"!%	c #B5A896",
"~%	c #ADA492",
"{%	c #726655",
"]%	c #86603D",
"^%	c #835B39",
"/%	c #865E39",
"(%	c #A97C48",
"_%	c #C6A363",
":%	c #AF8455",
"<%	c #986A40",
"[%	c #A68864",
"}%	c #A79D87",
"|%	c #867E6D",
"1%	c #9A8E7D",
"2%	c #BFB09C",
"3%	c #9B9380",
"4%	c #73624E",
"5%	c #8D6540",
"6%	c #7B5538",
"7%	c #825935",
"8%	c #A27749",
"9%	c #C39E60",
"0%	c #AC804B",
"a%	c #96673E",
"b%	c #AE9371",
"c%	c #AA9F8A",
"d%	c #8E8778",
"e%	c #B2A590",
"f%	c #C1B49F",
"g%	c #918876",
"h%	c #79644E",
"i%	c #916A44",
"j%	c #845C39",
"k%	c #865F3A",
"l%	c #A37646",
"m%	c #C09B5A",
"n%	c #AD814F",
"o%	c #9A6A43",
"p%	c #BCA281",
"q%	c #AFA28C",
"r%	c #8E8574",
"s%	c #BDB19B",
"t%	c #C4B7A3",
"u%	c #837664",
"v%	c #866B4E",
"w%	c #976F45",
"x%	c #7E5C39",
"y%	c #825D3B",
"z%	c #9E7446",
"A%	c #C5A160",
"B%	c #AF8352",
"C%	c #986A45",
"D%	c #C5AD8F",
"E%	c #B6A994",
"F%	c #908573",
"G%	c #C6B8A2",
"H%	c #BBAC97",
"I%	c #857461",
"J%	c #8B6E4B",
"K%	c #916A42",
"L%	c #8D663D",
"M%	c #8C643E",
"N%	c #A47947",
"O%	c #C4A161",
"P%	c #AA7F50",
"Q%	c #946843",
"R%	c #C6AF8D",
"S%	c #BAAA94",
"T%	c #A69684",
"U%	c #CDBCA4",
"V%	c #B2A08C",
"W%	c #867055",
"X%	c #8A6F50",
"Y%	c #916944",
"Z%	c #8C6742",
"`%	c #AC7F4B",
" &	c #BF9558",
".&	c #AB8559",
"+&	c #966B48",
"@&	c #C6B195",
"#&	c #B19F87",
"$&	c #A18E74",
"%&	c #C7B69A",
"&&	c #988670",
"*&	c #897255",
"=&	c #947A55",
"-&	c #A28359",
";&	c #8E6545",
">&	c #996E42",
",&	c #A87C4A",
"'&	c #C59D5F",
")&	c #936947",
"!&	c #BAA88C",
"~&	c #A5937E",
"{&	c #8F7B61",
"]&	c #BAA88E",
"^&	c #746455",
"/&	c #313440",
"(&	c #7E715A",
"_&	c #9E7C52",
":&	c #936A46",
"<&	c #8B6743",
"[&	c #A57B4C",
"}&	c #C5A162",
"|&	c #AD8453",
"1&	c #8E6344",
"2&	c #AD9378",
"3&	c #A39280",
"4&	c #947D5E",
"5&	c #B4A081",
"6&	c #6E6255",
"7&	c #30333F",
"8&	c #7E715F",
"9&	c #9F805A",
"0&	c #845F42",
"a&	c #89623F",
"b&	c #A88153",
"c&	c #C4A66A",
"d&	c #AC8455",
"e&	c #8C6446",
"f&	c #9E8060",
"g&	c #9D9483",
"h&	c #9A866B",
"i&	c #887B6A",
"j&	c #9B8C78",
"k&	c #393A42",
"l&	c #7D6F5B",
"m&	c #9E7C57",
"n&	c #8A6542",
"o&	c #84603F",
"p&	c #AC8452",
"q&	c #BF9D5E",
"r&	c #A87F50",
"s&	c #926C47",
"t&	c #9A724F",
"u&	c #B5A995",
"v&	c #998D7C",
"w&	c #82776E",
"x&	c #AD9D86",
"y&	c #5B5550",
"z&	c #7F705A",
"A&	c #9A7B55",
"B&	c #805B3C",
"C&	c #8F6740",
"D&	c #A98250",
"E&	c #BD955A",
"F&	c #A88256",
"G&	c #9C7853",
"H&	c #C2A170",
"I&	c #C5B191",
"J&	c #8E7E6B",
"K&	c #77675B",
"L&	c #B29771",
"M&	c #6C5C4B",
"N&	c #7E6D56",
"O&	c #B18958",
"P&	c #B9844D",
"Q&	c #A17B4B",
"R&	c #A7804F",
"S&	c #B58D58",
"T&	c #B89364",
"U&	c #B38D5E",
"V&	c #C8AF84",
"W&	c #978368",
"X&	c #605249",
"Y&	c #B4956A",
"Z&	c #725C46",
"`&	c #7A6954",
" *	c #B39161",
".*	c #B88953",
"+*	c #B38B55",
"@*	c #C29D6B",
"#*	c #AF8756",
"$*	c #AD9A7E",
"%*	c #594B45",
"&*	c #9C805F",
"**	c #725A44",
"=*	c #6F5B4A",
"-*	c #8F6E4A",
";*	c #B58B55",
">*	c #C09D65",
",*	c #A09078",
"'*	c #72604E",
")*	c #88715A",
"!*	c #81674B",
"~*	c #7E6B56",
"{*	c #9D7D50",
"]*	c #BD9860",
"^*	c #9E886B",
"/*	c #9E8565",
"(*	c #907154",
"_*	c #86694D",
":*	c #7B6953",
"<*	c #A38455",
"[*	c #BF955A",
"}*	c #A68D67",
"|*	c #B29976",
"1*	c #A98153",
"2*	c #9C7B53",
"3*	c #77644E",
"4*	c #B18F5C",
"5*	c #C09962",
"6*	c #3D393F",
"7*	c #997756",
"8*	c #9A7049",
"9*	c #9B7652",
"0*	c #30323A",
"a*	c #A28559",
"b*	c #B08B5A",
"c*	c #2E2E39",
"d*	c #876246",
"e*	c #89613D",
"f*	c #7B634B",
"g*	c #2F303C",
"h*	c #9C8258",
"i*	c #A68354",
"j*	c #302E3A",
"k*	c #674C3D",
"l*	c #76533A",
"m*	c #3C373F",
"n*	c #2C2C3B",
"o*	c #9B7F56",
"p*	c #BA935C",
"q*	c #A0835C",
"r*	c #453A3B",
"s*	c #483836",
"t*	c #292833",
"u*	c #71624A",
"v*	c #A68451",
"w*	c #B58D57",
"x*	c #937857",
"y*	c #392E32",
"z*	c #26232C",
"A*	c #2B2A30",
"B*	c #836C4C",
"C*	c #957448",
"D*	c #B28350",
"E*	c #B78E5E",
"F*	c #B89162",
"G*	c #C09C6E",
"H*	c #C69B68",
"I*	c #C8A16B",
"J*	c #B38E5C",
"K*	c #A97947",
"L*	c #C6A06E",
"M*	c #CCA771",
"N*	c #CBA873",
"O*	c #CBA66F",
"P*	c #CCA871",
"Q*	c #B08754",
"R*	c #AA7848",
"S*	c #C9A471",
"T*	c #C9A26E",
"U*	c #CAA56F",
"V*	c #CAA771",
"W*	c #CCAB77",
"X*	c #B38A57",
"Y*	c #AC7A49",
"Z*	c #C7A16C",
"`*	c #C9A36E",
" =	c #CBA673",
".=	c #C9A56D",
"+=	c #B88F59",
"@=	c #A5754C",
"#=	c #C69C66",
"$=	c #CBA471",
"%=	c #CAA26A",
"&=	c #C69A60",
"*=	c #C39C64",
"==	c #A97B4C",
"                                                                                  ",
"                                  . + @ # $ % &                                   ",
"                                * = - ; > , ' )                                   ",
"                                ! ~ { ] ^ / ( _                                   ",
"                                : < [ } | 1 2 3                                   ",
"                                4 5 6 7 8 9 0 a                                   ",
"                                b c d e f g h i                                   ",
"                                j k l m n o p q                                   ",
"                                r s t u v w x y                                   ",
"                                  z A B C D E F                                   ",
"                                  G H I J K L M                                   ",
"                                  N O P Q R S T                                   ",
"                                U V W X Y Z `  ...                                ",
"                              +.@.#.$.%.&.*.=.-.;.>.                              ",
"  ,.'.).!.~.{.].^./.(._.:.<.[.}.|.1.2.3.4.5.6.7.8.9.0.a.b.c.d.e.f.g.h.i.j.k.l.m.  ",
"  n.o.p.q.r.s.t.u.v.w.x.y.z.A.B.C.D.E.F.G.H.I.J.K.L.M.N.O.P.Q.R.S.T.U.V.W.X.Y.Z.  ",
"  `. +.+++@+#+$+%+&+*+=+-+;+>+,+'+)+!+~+{+]+^+/+(+_+_+:+<+[+}+|+1+2+3+4+5+6+7+8+  ",
"  9+0+a+b+c+d+e+f+g+h+i+j+k+l+m+n+o+p+q+r+s+t+u+v+w+x+x+C y+z+A+B+C+D+E+F+G+H+I+  ",
"  J+K+L+M+N+O+P+Q+R+S+T+U+V+W+X+Y+Z+`+ @.@+@@@#@$@%@&@*@=@-@;@>@,@'@)@!@~@{@]@^@  ",
"  /@(@_@:@<@[@}@|@1@2@3@4@5@6@7@8@9@0@a@b@c@d@e@f@g@h@i@j@k@l@m@n@o@p@q@r@s@t@u@  ",
"  v@w@x@y@z@A@B@C@D@E@F@G@H@I@J@K@L@M@N@O@P@Q@R@S@T@U@V@W@X@Y@Z@`@ #.#+#@###$#%#  ",
"  &#*#=#-#;#>#,#'#)#!#~#{#]#^#/#(#_#:#<#[#}#|#1#2#3#4#5#d.6#7#8#9#0#a#b#c#d#      ",
"                        e#f#g#h#i#j#k#l#m#n#o#p#q#r#s#t#u#                        ",
"                          v#w#x#y#z#A#B#C#D#E#F#G#H#I#J#                          ",
"                          K#L#M#N#O#P#Q#R#S#T#U#V#W#X#Y#                          ",
"                          Z#`# $.$+$@$#$$$%$&$*$=$-$;$>$                          ",
"                          ,$'$)$!$~${$]$^$/$($_$:$<$[$}$                          ",
"                          |$1$2$3$4$5$6$7$8$9$0$a$b$c$d$                          ",
"                          e$f$g$h$i$j$k$l$m$n$o$p$q$r$s$                          ",
"                          t$u$v$w$x$y$z$A$B$C$D$E$F$G$H$                          ",
"                          I$J$K$L$M$N$O$P$Q$R$S$T$U$V$W$                          ",
"                            X$Y$Z$`$ %.%+%@%#%$%%%&%*%=%                          ",
"                            -%;%>%,%'%)%!%~%{%]%^%/%(%_%                          ",
"                            :%<%[%}%|%1%2%3%4%5%6%7%8%9%                          ",
"                            0%a%b%c%d%e%f%g%h%i%j%k%l%m%                          ",
"                            n%o%p%q%r%s%t%u%v%w%x%y%z%A%                          ",
"                            B%C%D%E%F%G%H%I%J%K%L%M%N%O%                          ",
"                            P%Q%R%S%T%U%V%W%X%e.Y%Z%`% &                          ",
"                            .&+&@&#&$&%&&&*&=&-&;&>&,&'&                          ",
"                            /.)&!&~&{&]&^&/&(&_&:&<&[&}&                          ",
"                            |&1&2&3&4&5&6&7&8&9&0&a&b&c&                          ",
"                            d&e&f&g&h&i&j&k&l&m&n&o&p&q&                          ",
"                            r&s&t&u&v&w&x&y&z&A&B&C&D&E&                          ",
"                            F&G&H&I&J&K&L&M&N&O&P&Q&R&S&                          ",
"                              T&U&V&W&X&Y&Z&`& *.*+*                              ",
"                                @*#*$*%*&***=*-*;*                                ",
"                                  >*,*'*)*!*~*{*                                  ",
"                                  ]*^*/*(*_*:*<*                                  ",
"                                  [*}*|*1*2*3*4*                                  ",
"                                  5*6*7*8*9*0*a*                                  ",
"                                  b*c*d*e*f*g*h*                                  ",
"                                  i*j*k*l*m*n*o*                                  ",
"                                  p*q*r*s*t*u*v*                                  ",
"                                  w*x*y*z*A*B*C*                                  ",
"                                  D*E*F*G*H*I*J*                                  ",
"                                  K*L*M*N*O*P*Q*                                  ",
"                                  R*S*T*U*V*W*X*                                  ",
"                                  Y*Z*`* =.=W*+=                                  ",
"                                  @=#=$=%=&=*===                                  ",
"                                                                                  "};
