/* XPM */
static char * farmer_xpm[] = {
"38 70 839 2",
"  	c None",
". 	c #CFC2BF",
"+ 	c #E7E5E8",
"@ 	c #FDFDFC",
"# 	c #FEFEFC",
"$ 	c #FEFDFC",
"% 	c #E9E5D7",
"& 	c #E9D3DB",
"* 	c #FEFDFE",
"= 	c #FEFEFE",
"- 	c #F7F3DC",
"; 	c #A68E4C",
"> 	c #B593AA",
", 	c #FCFAF9",
"' 	c #FEFEFD",
") 	c #FCF8ED",
"! 	c #EEDFB8",
"~ 	c #DDC596",
"{ 	c #E4D6BF",
"] 	c #C5AE66",
"^ 	c #C7BAC6",
"/ 	c #FDFEF9",
"( 	c #FDFEF5",
"_ 	c #E6CE8A",
": 	c #E2C05C",
"< 	c #E8C04D",
"[ 	c #D49E30",
"} 	c #B0671C",
"| 	c #D8CED3",
"1 	c #FEFFF9",
"2 	c #EFE3A5",
"3 	c #D7AE50",
"4 	c #E5BC47",
"5 	c #C0892D",
"6 	c #BD7F26",
"7 	c #9B5115",
"8 	c #683512",
"9 	c #785C5D",
"0 	c #F8F4EA",
"a 	c #E1BC4D",
"b 	c #F0CB58",
"c 	c #CC9D3A",
"d 	c #8F5D1E",
"e 	c #7C4616",
"f 	c #7D3F10",
"g 	c #4F230A",
"h 	c #35180F",
"i 	c #DAC79E",
"j 	c #D8AC44",
"k 	c #F5C54B",
"l 	c #DEA53B",
"m 	c #AA7733",
"n 	c #D0AD4F",
"o 	c #51230A",
"p 	c #1E1108",
"q 	c #CAAE6E",
"r 	c #F5D062",
"s 	c #F7C84F",
"t 	c #EDB852",
"u 	c #D0A24A",
"v 	c #A97229",
"w 	c #421C0C",
"x 	c #3C2517",
"y 	c #976F61",
"z 	c #D1AB44",
"A 	c #E8C44F",
"B 	c #F4D46B",
"C 	c #DAB14D",
"D 	c #AA671E",
"E 	c #6C3413",
"F 	c #4F384A",
"G 	c #9A8855",
"H 	c #BC926A",
"I 	c #E8CD56",
"J 	c #CEA035",
"K 	c #C8973A",
"L 	c #DFB33B",
"M 	c #5E3312",
"N 	c #8A6D43",
"O 	c #7B6095",
"P 	c #3A3985",
"Q 	c #988D8D",
"R 	c #BA9C4B",
"S 	c #EECC4C",
"T 	c #B98E28",
"U 	c #53270B",
"V 	c #0D0818",
"W 	c #998251",
"X 	c #E1D7E5",
"Y 	c #FBF7F9",
"Z 	c #CBD9EC",
"` 	c #909BBA",
" .	c #4463AA",
"..	c #A29484",
"+.	c #CDAC50",
"@.	c #39254E",
"#.	c #2C2655",
"$.	c #432A26",
"%.	c #442C24",
"&.	c #886745",
"*.	c #CEBDD6",
"=.	c #F2EFF2",
"-.	c #D8D9D1",
";.	c #9EB3D8",
">.	c #3F5CB1",
",.	c #918589",
"'.	c #2D398C",
").	c #5B4C64",
"!.	c #745050",
"~.	c #291C3D",
"{.	c #291E56",
"].	c #3A3384",
"^.	c #3655B0",
"/.	c #5366B6",
"(.	c #E8E8F0",
"_.	c #FEFFFA",
":.	c #FEFDF7",
"<.	c #F2EEE7",
"[.	c #9EA9C0",
"}.	c #364988",
"|.	c #3C4684",
"1.	c #736480",
"2.	c #81615D",
"3.	c #32264A",
"4.	c #0D115C",
"5.	c #304AA6",
"6.	c #2E5BB7",
"7.	c #315CB2",
"8.	c #6E7ABA",
"9.	c #F9F9F6",
"0.	c #FBFCF6",
"a.	c #F7F8F0",
"b.	c #EDEEEB",
"c.	c #6F81A9",
"d.	c #151B50",
"e.	c #80718E",
"f.	c #8D7378",
"g.	c #4D3E5B",
"h.	c #0C1268",
"i.	c #393283",
"j.	c #2E5EB8",
"k.	c #2A52AE",
"l.	c #2C55B2",
"m.	c #2F4BAB",
"n.	c #CCCCE0",
"o.	c #FAFAF3",
"p.	c #F9F7F3",
"q.	c #F9F7F0",
"r.	c #F1F5EF",
"s.	c #6A7183",
"t.	c #78788F",
"u.	c #99828A",
"v.	c #634F61",
"w.	c #10166C",
"x.	c #1D0E32",
"y.	c #2D3F99",
"z.	c #325FB7",
"A.	c #244DAC",
"B.	c #2A51AF",
"C.	c #263D9C",
"D.	c #959AC9",
"E.	c #F5F6F0",
"F.	c #F2F2ED",
"G.	c #F2F3EE",
"H.	c #F7F6ED",
"I.	c #EDEEE2",
"J.	c #8F8A88",
"K.	c #8A747A",
"L.	c #8A7B8C",
"M.	c #2D3578",
"N.	c #334BA7",
"O.	c #2F5BB4",
"P.	c #2D56B1",
"Q.	c #2B51AF",
"R.	c #222D8B",
"S.	c #6B6CA9",
"T.	c #F8F5EC",
"U.	c #EFEBE6",
"V.	c #F1F0EB",
"W.	c #F9F9F0",
"X.	c #F7F8EC",
"Y.	c #C8C2B5",
"Z.	c #968391",
"`.	c #8B7A86",
" +	c #403971",
".+	c #0B0F5C",
"++	c #385CB3",
"@+	c #234EA9",
"#+	c #2851B2",
"$+	c #2044A2",
"%+	c #0E1C7C",
"&+	c #5C5B9E",
"*+	c #F6F4EB",
"=+	c #E2DED6",
"-+	c #F0EDE6",
";+	c #F4F1ED",
">+	c #FAFAEF",
",+	c #DBD7C0",
"'+	c #A4969D",
")+	c #9A8594",
"!+	c #585076",
"~+	c #081061",
"{+	c #29247D",
"]+	c #3C69BE",
"^+	c #264BAB",
"/+	c #244DAB",
"(+	c #1D3A98",
"_+	c #0E1A78",
":+	c #535498",
"<+	c #EEEEE7",
"[+	c #F1F0E8",
"}+	c #F4F4EA",
"|+	c #ECEADF",
"1+	c #F8F7E9",
"2+	c #E8E5CA",
"3+	c #ACA09C",
"4+	c #877883",
"5+	c #747082",
"6+	c #0C1157",
"7+	c #384499",
"8+	c #2E5BB1",
"9+	c #2549A9",
"0+	c #2F5BB7",
"a+	c #152A84",
"b+	c #0D0D61",
"c+	c #41408E",
"d+	c #ECEAE6",
"e+	c #F9F7EE",
"f+	c #EFEADC",
"g+	c #E5E0D1",
"h+	c #EFEDDD",
"i+	c #F0EDD4",
"j+	c #9D8B85",
"k+	c #9F959B",
"l+	c #867B85",
"m+	c #1A184D",
"n+	c #2F44A0",
"o+	c #254CAA",
"p+	c #2147A6",
"q+	c #2C57B2",
"r+	c #0C1974",
"s+	c #0F0858",
"t+	c #2B2C84",
"u+	c #ECECEA",
"v+	c #F7F6E9",
"w+	c #F0EBD5",
"x+	c #D9CFC4",
"y+	c #ECE8DB",
"z+	c #E6E4D3",
"A+	c #BBB6AE",
"B+	c #9C8F92",
"C+	c #85778A",
"D+	c #2A2B66",
"E+	c #3D2F79",
"F+	c #3A5DB4",
"G+	c #2F5CB5",
"H+	c #2B57B4",
"I+	c #20439E",
"J+	c #0E0F60",
"K+	c #190F5A",
"L+	c #201F79",
"M+	c #DDDEE9",
"N+	c #E6E3DC",
"O+	c #E0D9CD",
"P+	c #CAC8BE",
"Q+	c #DEDCD4",
"R+	c #F0EEE2",
"S+	c #DCDAD1",
"T+	c #8B7B7F",
"U+	c #706276",
"V+	c #1E1E57",
"W+	c #0D0E5A",
"X+	c #283692",
"Y+	c #1F43A3",
"Z+	c #284FAD",
"`+	c #2754B1",
" @	c #122986",
".@	c #211940",
"+@	c #241A59",
"@@	c #161A76",
"#@	c #C1C2DD",
"$@	c #DFDAD6",
"%@	c #D3CFCD",
"&@	c #DEDDD9",
"*@	c #DBD8D2",
"=@	c #D6D1C7",
"-@	c #DEDCD7",
";@	c #7E7072",
">@	c #695A70",
",@	c #2F2652",
"'@	c #0B0C5F",
")@	c #0F114C",
"!@	c #684C4D",
"~@	c #9F8570",
"{@	c #85616D",
"]@	c #84698F",
"^@	c #806A73",
"/@	c #51387D",
"(@	c #395CB3",
"_@	c #325DB4",
":@	c #2F5BB6",
"<@	c #2345A1",
"[@	c #08126B",
"}@	c #4A2E21",
"|@	c #36224A",
"1@	c #222A86",
"2@	c #A7ADD7",
"3@	c #EBE9DC",
"4@	c #DCD6CF",
"5@	c #EDEDE4",
"6@	c #D9D8D5",
"7@	c #CAC4B9",
"8@	c #CAC2CA",
"9@	c #898076",
"0@	c #48384F",
"a@	c #433D5D",
"b@	c #09126A",
"c@	c #151151",
"d@	c #3B2934",
"e@	c #A28A95",
"f@	c #B89F8B",
"g@	c #896464",
"h@	c #27358F",
"i@	c #2A56B5",
"j@	c #3261B9",
"k@	c #2449A2",
"l@	c #13207C",
"m@	c #181C4A",
"n@	c #281A42",
"o@	c #252E86",
"p@	c #828CC5",
"q@	c #F0EEE3",
"r@	c #D4CCCB",
"s@	c #EAE5E4",
"t@	c #DBD9CF",
"u@	c #C7BDB4",
"v@	c #A19391",
"w@	c #BEB6AE",
"x@	c #2E1F28",
"y@	c #3B314E",
"z@	c #1B2171",
"A@	c #292C5D",
"B@	c #835321",
"C@	c #AB8534",
"D@	c #85541E",
"E@	c #302E7C",
"F@	c #3966BB",
"G@	c #3364B9",
"H@	c #1C429E",
"I@	c #0F2381",
"J@	c #101552",
"K@	c #211A62",
"L@	c #232E89",
"M@	c #4B5EAB",
"N@	c #F8F9F4",
"O@	c #D2CFC8",
"P@	c #C5B9C0",
"Q@	c #D9D5CA",
"R@	c #BAB0B0",
"S@	c #B5ABA2",
"T@	c #A495A3",
"U@	c #4D443E",
"V@	c #271A29",
"W@	c #171960",
"X@	c #272336",
"Y@	c #915B1F",
"Z@	c #8D611D",
"`@	c #775289",
" #	c #385FB5",
".#	c #3568BA",
"+#	c #2043A3",
"@#	c #162373",
"##	c #3E323C",
"$#	c #22257D",
"%#	c #243999",
"&#	c #2E4AA6",
"*#	c #DDDDE8",
"=#	c #E3DFDA",
"-#	c #B9B3B8",
";#	c #DDDAD4",
">#	c #9E958B",
",#	c #B0A5A5",
"'#	c #978481",
")#	c #86807D",
"!#	c #181018",
"~#	c #221B3C",
"{#	c #504A57",
"]#	c #2E1B0C",
"^#	c #4D290D",
"/#	c #936F7C",
"(#	c #3B4B8F",
"_#	c #2F5CAB",
":#	c #2F59B0",
"<#	c #1A3F9C",
"[#	c #111C6F",
"}#	c #3F334A",
"|#	c #473053",
"1#	c #252F89",
"2#	c #2E46A3",
"3#	c #3C61B4",
"4#	c #B4B4D4",
"5#	c #EEEDE2",
"6#	c #C2BABA",
"7#	c #BEB3B6",
"8#	c #A99D91",
"9#	c #84776A",
"0#	c #987F54",
"a#	c #96795B",
"b#	c #26190B",
"c#	c #191629",
"d#	c #837C72",
"e#	c #2D2319",
"f#	c #0A060A",
"g#	c #B08B42",
"h#	c #C98121",
"i#	c #DCBE38",
"j#	c #BCA834",
"k#	c #424258",
"l#	c #1C2B78",
"m#	c #39385C",
"n#	c #1A1664",
"o#	c #2A479F",
"p#	c #4674C2",
"q#	c #7883BE",
"r#	c #FCFDFA",
"s#	c #DDDFD7",
"t#	c #CCC8A7",
"u#	c #A09153",
"v#	c #AB8433",
"w#	c #C69935",
"x#	c #AD712A",
"y#	c #7D4E2C",
"z#	c #AFAFC6",
"A#	c #B0B1AD",
"B#	c #564C42",
"C#	c #0A0706",
"D#	c #BD9045",
"E#	c #CE9A4E",
"F#	c #B57225",
"G#	c #B66D29",
"H#	c #EBAF42",
"I#	c #C27C1E",
"J#	c #C7851D",
"K#	c #131A41",
"L#	c #3A517C",
"M#	c #404B7A",
"N#	c #DEDCE2",
"O#	c #F2F4F3",
"P#	c #D1C374",
"Q#	c #D9BB44",
"R#	c #CD9A2B",
"S#	c #C58A27",
"T#	c #B88B56",
"U#	c #DFD4D5",
"V#	c #F1F3F3",
"W#	c #D2D7CB",
"X#	c #5C5541",
"Y#	c #150E0B",
"Z#	c #C07825",
"`#	c #D79734",
" $	c #BB7C2D",
".$	c #B26E2E",
"+$	c #C07A1D",
"@$	c #000000",
"#$	c #524B5E",
"$$	c #FAF9FA",
"%$	c #F4F7EE",
"&$	c #E5E5D1",
"*$	c #E2D6CA",
"=$	c #DED7D0",
"-$	c #F2F3F3",
";$	c #FEFEF7",
">$	c #F7F7F1",
",$	c #CCCCB4",
"'$	c #776D63",
")$	c #1C110F",
"!$	c #20110F",
"~$	c #080404",
"{$	c #040306",
"]$	c #9C949C",
"^$	c #F9F9F5",
"/$	c #FEFFFB",
"($	c #FEFEFB",
"_$	c #FDFDEF",
":$	c #F1EFE4",
"<$	c #BBB7A4",
"[$	c #625142",
"}$	c #241612",
"|$	c #020101",
"1$	c #09060A",
"2$	c #8E8691",
"3$	c #F6F7F3",
"4$	c #FDFDF8",
"5$	c #FDFCF4",
"6$	c #F8F6EC",
"7$	c #9A8C74",
"8$	c #3A2324",
"9$	c #120E0E",
"0$	c #070204",
"a$	c #010101",
"b$	c #010100",
"c$	c #060409",
"d$	c #998D9A",
"e$	c #EFEBDF",
"f$	c #F1F0DE",
"g$	c #E2E0D1",
"h$	c #CAC5B2",
"i$	c #8B7B5F",
"j$	c #392924",
"k$	c #24161B",
"l$	c #160D07",
"m$	c #010001",
"n$	c #020102",
"o$	c #090A36",
"p$	c #4A446E",
"q$	c #6E5C59",
"r$	c #504645",
"s$	c #3D2F2E",
"t$	c #1A1328",
"u$	c #110A28",
"v$	c #975921",
"w$	c #703C19",
"x$	c #84461C",
"y$	c #040303",
"z$	c #3D1F0E",
"A$	c #29180D",
"B$	c #3B1F11",
"C$	c #823A18",
"D$	c #08062B",
"E$	c #080C61",
"F$	c #080B5F",
"G$	c #030754",
"H$	c #050A5B",
"I$	c #08095C",
"J$	c #060730",
"K$	c #402510",
"L$	c #D17930",
"M$	c #BB6728",
"N$	c #0F0903",
"O$	c #753214",
"P$	c #BF5B23",
"Q$	c #D36A2B",
"R$	c #993D16",
"S$	c #050847",
"T$	c #060E69",
"U$	c #060F65",
"V$	c #040A60",
"W$	c #040F6A",
"X$	c #050859",
"Y$	c #05094A",
"Z$	c #0D0709",
"`$	c #3C1F1F",
" %	c #0C0F40",
".%	c #07080F",
"+%	c #06071D",
"@%	c #1A0E1A",
"#%	c #38180F",
"$%	c #14082B",
"%%	c #081471",
"&%	c #09156F",
"*%	c #091573",
"=%	c #060C65",
"-%	c #081877",
";%	c #050B63",
">%	c #07126C",
",%	c #0D0C24",
"'%	c #5A4478",
")%	c #34367C",
"!%	c #132D8E",
"~%	c #061024",
"{%	c #112270",
"]%	c #26398C",
"^%	c #151661",
"/%	c #0E1978",
"(%	c #0E2285",
"_%	c #0A1571",
":%	c #09187A",
"<%	c #040B65",
"[%	c #0B2187",
"}%	c #08136B",
"|%	c #081575",
"1%	c #0F0D35",
"2%	c #6D5D95",
"3%	c #294CA9",
"4%	c #2953AF",
"5%	c #101F46",
"6%	c #12266D",
"7%	c #1E41A1",
"8%	c #212886",
"9%	c #152C8F",
"0%	c #1D3FA0",
"a%	c #081774",
"b%	c #10288C",
"c%	c #081270",
"d%	c #0F288D",
"e%	c #0E1C78",
"f%	c #091374",
"g%	c #080D53",
"h%	c #5D5D9E",
"i%	c #1D4BA8",
"j%	c #2D5FB5",
"k%	c #162E5D",
"l%	c #112266",
"m%	c #214DAD",
"n%	c #1A42A3",
"o%	c #1B3FA0",
"p%	c #1F46A6",
"q%	c #102382",
"r%	c #183394",
"s%	c #0D1E7A",
"t%	c #132B8D",
"u%	c #132887",
"v%	c #061171",
"w%	c #0A1872",
"x%	c #445AA7",
"y%	c #3060B7",
"z%	c #3364BB",
"A%	c #16246A",
"B%	c #203996",
"C%	c #2351AF",
"D%	c #214EAC",
"E%	c #2A55B3",
"F%	c #132D8A",
"G%	c #163095",
"H%	c #0A1774",
"I%	c #0F2387",
"J%	c #122683",
"K%	c #030C67",
"L%	c #0A1D7D",
"M%	c #15144D",
"N%	c #3156A8",
"O%	c #3264BB",
"P%	c #2E5DB6",
"Q%	c #2854B1",
"R%	c #2859B4",
"S%	c #2B5BB7",
"T%	c #2852B0",
"U%	c #224CAC",
"V%	c #2553AD",
"W%	c #142D8D",
"X%	c #1B3698",
"Y%	c #0D207F",
"Z%	c #132787",
"`%	c #0C2180",
" &	c #050D65",
".&	c #0C1E7D",
"+&	c #0A1252",
"@&	c #62506A",
"#&	c #3D64BA",
"$&	c #3662BA",
"%&	c #2B58B4",
"&&	c #2753B0",
"*&	c #305DB6",
"=&	c #2A55B0",
"-&	c #224DAB",
";&	c #2049A8",
">&	c #2152B3",
",&	c #173896",
"'&	c #192F92",
")&	c #132485",
"!&	c #0B1A7A",
"~&	c #162E91",
"{&	c #09126B",
"]&	c #06126F",
"^&	c #071567",
"/&	c #24111A",
"(&	c #766A82",
"_&	c #335BB3",
":&	c #3965BC",
"<&	c #2959B4",
"[&	c #2857B2",
"}&	c #2352AF",
"|&	c #2A57B2",
"1&	c #1D45A5",
"2&	c #2655B1",
"3&	c #275AB5",
"4&	c #0F3393",
"5&	c #11298B",
"6&	c #0D2381",
"7&	c #091A78",
"8&	c #183193",
"9&	c #08156D",
"0&	c #03106E",
"a&	c #081A79",
"b&	c #1B163D",
"c&	c #585687",
"d&	c #264DAC",
"e&	c #3F66BA",
"f&	c #2652AF",
"g&	c #2955B1",
"h&	c #2752AE",
"i&	c #204AAA",
"j&	c #2146A4",
"k&	c #274DAB",
"l&	c #2252AE",
"m&	c #123391",
"n&	c #0C1C7D",
"o&	c #0C2281",
"p&	c #0B1675",
"q&	c #152B8E",
"r&	c #081970",
"s&	c #071470",
"t&	c #142583",
"u&	c #1F1F54",
"v&	c #482913",
"w&	c #3F457E",
"x&	c #4168BA",
"y&	c #3562B9",
"z&	c #3161B8",
"A&	c #244FAC",
"B&	c #244DA9",
"C&	c #193C9C",
"D&	c #2146A7",
"E&	c #2557B1",
"F&	c #0E3393",
"G&	c #0B2083",
"H&	c #0A2889",
"I&	c #07116B",
"J&	c #132F91",
"K&	c #112B6E",
"L&	c #252B51",
"M&	c #2F343F",
"N&	c #A7A6B3",
"O&	c #2F406D",
"P&	c #10152A",
"Q&	c #171D48",
"R&	c #233B8E",
"S&	c #143090",
"T&	c #0C2286",
"U&	c #1C3EA1",
"V&	c #2453B0",
"W&	c #18409D",
"X&	c #0E2379",
"Y&	c #102C8D",
"Z&	c #091366",
"`&	c #1D3583",
" *	c #253F8A",
".*	c #010102",
"+*	c #040203",
"@*	c #482B39",
"#*	c #2A2F7E",
"$*	c #243E97",
"%*	c #5370AE",
"&*	c #3C476C",
"**	c #0D132D",
"=*	c #030308",
"-*	c #191D35",
";*	c #3B1F14",
">*	c #140A03",
",*	c #0C0504",
"'*	c #77441B",
")*	c #9A3D16",
"!*	c #352641",
"~*	c #6D4C26",
"{*	c #030102",
"]*	c #000001",
"^*	c #1F100F",
"/*	c #020100",
"(*	c #020000",
"_*	c #080403",
":*	c #57260D",
"<*	c #190A08",
"[*	c #090502",
"}*	c #07060B",
"|*	c #171006",
"1*	c #0D0B10",
"2*	c #160B04",
"3*	c #080302",
"4*	c #0D0703",
"5*	c #09080A",
"6*	c #080201",
"7*	c #09060F",
"8*	c #201A0B",
"9*	c #020202",
"0*	c #2F1806",
"a*	c #110E16",
"b*	c #110B05",
"c*	c #040201",
"d*	c #0F0C0C",
"e*	c #060202",
"f*	c #010201",
"g*	c #1C1716",
"h*	c #0B0807",
"i*	c #070401",
"j*	c #030207",
"k*	c #170B04",
"l*	c #030200",
"m*	c #090401",
"n*	c #170E0A",
"o*	c #090301",
"p*	c #111015",
"q*	c #0C0502",
"r*	c #0A0601",
"s*	c #211716",
"t*	c #070402",
"u*	c #0E0604",
"v*	c #180903",
"w*	c #050200",
"x*	c #040304",
"y*	c #341A06",
"z*	c #0A0502",
"A*	c #020201",
"B*	c #050202",
"C*	c #0E0503",
"D*	c #0F0803",
"E*	c #060201",
"F*	c #050101",
"G*	c #030301",
"H*	c #1F1A08",
"I*	c #090804",
"J*	c #050301",
"K*	c #050201",
"L*	c #100904",
"M*	c #1D1108",
"N*	c #070502",
"O*	c #190C06",
"P*	c #36251F",
"Q*	c #342913",
"R*	c #1B0A06",
"S*	c #130A03",
"T*	c #070301",
"U*	c #1A1010",
"V*	c #36311A",
"W*	c #150905",
"X*	c #190C08",
"Y*	c #0E0603",
"Z*	c #0B0402",
"`*	c #0A0303",
" =	c #0F0703",
".=	c #281208",
"+=	c #1D180D",
"@=	c #140804",
"#=	c #120A03",
"$=	c #0B0502",
"%=	c #0C0602",
"&=	c #180B06",
"*=	c #241A11",
"==	c #160A02",
"-=	c #291509",
"                                                                            ",
"                                              .                             ",
"                                          + @ # $ %                         ",
"                                        & * = = = # - ;                     ",
"                                      > , = ' ) ! ~ { ]                     ",
"                                      ^ / ( _ : < [ }                       ",
"                                      | 1 2 3 4 5 6 7 8                     ",
"                                      9 0 a b c d e f g                     ",
"                                      h i j k l m n o p                     ",
"                                        q r s t u v w x                     ",
"                                      y z A B C D E F G                     ",
"                                      H I J K L M     N                     ",
"                                  O P Q R S T U V     W                     ",
"                                X Y Z `  ...+.@.#.$.%.&.                    ",
"                              *.=.# 1 -.;.>.,.'.).!.~.{.                    ",
"                            ].^./.(._.:.<.[.}.|.1.2.3.4.                    ",
"                            5.6.7.8.9.0.a.b.c.d.e.f.g.h.                    ",
"                          i.j.k.l.m.n.o.p.q.r.s.t.u.v.w.x.                  ",
"                          y.z.A.B.C.D.E.F.G.H.I.J.K.L.M.                    ",
"                          N.O.P.Q.R.S.T.U.V.W.X.Y.Z.`. +.+                  ",
"                          ++@+#+$+%+&+*+=+-+;+>+,+'+)+!+~+                  ",
"                        {+]+^+/+(+_+:+<+[+}+|+1+2+3+4+5+6+                  ",
"                        7+8+9+0+a+b+c+d+e+f+g+h+i+j+k+l+m+                  ",
"                        n+o+p+q+r+s+t+u+v+w+x+y+z+A+B+C+D+                  ",
"                      E+F+G+H+I+J+K+L+M+N+O+P+Q+R+S+T+U+V+W+                ",
"                      X+Y+Z+`+ @.@+@@@#@$@%@&@*@=@-@;@>@,@'@)@!@~@{@]@^@    ",
"                    /@(@_@:@<@[@}@|@1@2@3@4@5@6@7@8@9@0@a@b@c@d@e@f@g@      ",
"                    h@i@j@k@l@m@  n@o@p@q@r@s@t@u@v@w@x@y@z@A@B@C@D@        ",
"                  E@F@G@H@I@J@    K@L@M@N@O@P@Q@R@S@T@U@V@W@X@Y@Z@          ",
"                `@ #.#`++#@###    $#%#&#*#=#-#;#>#,#'#)#!#~#{#]#^#          ",
"              /#(#_#:#<#[#}#    |#1#2#3#4#5#6#7#8#9#0#a#b#c#d#e#f#          ",
"    g#        h#i#j#k#l#m#        n#o#p#q#r#s#t#u#v#w#x#y#z#A#B#C#          ",
"      D#E#F#G#H#I#J#                K#L#M#N#O#P#Q#R#S#T#U#V#W#X#Y#          ",
"      Z#`# $.$+$                    @$@$@$#$$$%$&$*$=$-$;$>$,$'$)$!$        ",
"                                  ~$@$@$@${$]$^$# /$_.($_$:$<$[$}$          ",
"                                  |$@$@$@$@$1$2$3$4$( 5$6$I.7$8$9$          ",
"                                0$@$@$@$a$@$b$c$d$e$f$g$h$i$j$k$            ",
"                                l$@$@$@$m$@$@$n$o$p$q$r$s$t$u$              ",
"                                v$w$x$y$z$A$B$C$D$E$F$G$H$I$J$              ",
"                                K$L$M$N$O$P$Q$R$S$T$U$V$W$X$Y$              ",
"                                Z$`$ %.%+%@%#%$%%%&%*%=%-%;%>%,%            ",
"                                '%)%!%~%{%]%^%/%(%_%:%<%[%}%|%1%            ",
"                                2%3%4%5%6%7%8%9%0%a%b%c%d%e%f%g%            ",
"                                h%i%j%k%l%m%n%o%p%q%r%s%t%u%v%w%            ",
"                                x%y%z%A%B%C%C%D%E%F%G%H%I%J%K%L%M%          ",
"                                N%O%P%Q%R%S%T%U%V%W%X%Y%Z%`% &.&+&          ",
"                              @&#&$&%&&&*&=&-&;&>&,&'&)&!&~&{&]&^&/&        ",
"                              (&_&:&<&[&}&|&1&2&3&4&5&6&7&8&9&0&a&b&        ",
"                              c&d&e&f&g&h&i&j&k&l&m&n&o&p&q&r&s&t&u&v&      ",
"                              w&x&y&z&A&B&C&8&D&E&F&G&H&I&J&K&L&M&          ",
"                                N&O&P&Q&R&S&T&U&V&W&X&Y&Z&`& *              ",
"                                  |$.*+*@*#*$*%*&***=*-*;*                  ",
"                                >*@$,*'*)*!*  ~*{*]*@$.*^*                  ",
"                                /*(*_*:*<*    [*@$@$@$}*                    ",
"                              |*]*@$@$@$1*  2*@$@$@$a$                      ",
"                                3*@$@$.*    4*@$@$a$5*                      ",
"                                6*@$@$7*    8*@$a$9*                        ",
"                              0*m$@$a$a*    b*c*c*d*                        ",
"                              e*@$a$f*g*    {*e*h*                          ",
"                              i*a$@$j*    k*l*m*n*                          ",
"                              o*@$a$p*    c*q*>*                            ",
"                              r*@$|$s*    t*u*v*                            ",
"                              w*@$x*    y*m*c*z*                            ",
"                              9*A*B*    C*D*E*F*                            ",
"                            m*G*G*z*    H*I*J*K*L*                          ",
"                            M*E*N*O*P*      Q*[*>*R*                        ",
"                            S*T*K*3*U*        V*W*X*                        ",
"                              Y*Z*`* =.=                                    ",
"                                +=@=#=$=%=&=                                ",
"                                    *===-=                                  "};
