/* XPM */
static char * fish_xpm[] = {
"70 24 804 2",
"  	c None",
". 	c #92AE7A",
"+ 	c #A3B879",
"@ 	c #9CB184",
"# 	c #7B9D7B",
"$ 	c #627A59",
"% 	c #9BA978",
"& 	c #899469",
"* 	c #7A9362",
"= 	c #768453",
"- 	c #62673E",
"; 	c #5B5E30",
"> 	c #545829",
", 	c #4F5731",
"' 	c #859A7B",
") 	c #8CA988",
"! 	c #A7BC7B",
"~ 	c #A4AB67",
"{ 	c #888F58",
"] 	c #6D7A53",
"^ 	c #5D6D51",
"/ 	c #A2C787",
"( 	c #8BAA7B",
"_ 	c #6B9F7C",
": 	c #6C915B",
"< 	c #487256",
"[ 	c #639B82",
"} 	c #689480",
"| 	c #48726F",
"1 	c #96AE88",
"2 	c #9BB272",
"3 	c #909862",
"4 	c #7A8866",
"5 	c #809064",
"6 	c #869366",
"7 	c #7E8B64",
"8 	c #76835D",
"9 	c #89A380",
"0 	c #9AC4A5",
"a 	c #A0B68F",
"b 	c #829779",
"c 	c #789080",
"d 	c #789B7B",
"e 	c #787E55",
"f 	c #635C3D",
"g 	c #52442F",
"h 	c #4C3E2A",
"i 	c #4C3A21",
"j 	c #564F23",
"k 	c #615728",
"l 	c #83A789",
"m 	c #85A06F",
"n 	c #728B56",
"o 	c #5C6244",
"p 	c #526858",
"q 	c #547A51",
"r 	c #536542",
"s 	c #5CBD93",
"t 	c #9BCE96",
"u 	c #A4BA76",
"v 	c #8C9E6D",
"w 	c #606A54",
"x 	c #AAC19B",
"y 	c #91B79F",
"z 	c #8FB9A8",
"A 	c #93C0B4",
"B 	c #9FCBB7",
"C 	c #A6CBB2",
"D 	c #A1CAB7",
"E 	c #A7D8B8",
"F 	c #B1D2A7",
"G 	c #A7BF9C",
"H 	c #96AE90",
"I 	c #8FAA92",
"J 	c #8CB1AC",
"K 	c #A3D8AC",
"L 	c #B6CD97",
"M 	c #95AC93",
"N 	c #86AB9B",
"O 	c #86AE94",
"P 	c #8DAF8F",
"Q 	c #8AA37A",
"R 	c #778163",
"S 	c #5B6350",
"T 	c #504E41",
"U 	c #4D4B34",
"V 	c #534A2C",
"W 	c #515239",
"X 	c #6DAE89",
"Y 	c #7EAA92",
"Z 	c #6C847A",
"` 	c #5F6F5D",
" .	c #525746",
"..	c #494B3A",
"+.	c #41412D",
"@.	c #3F3A28",
"#.	c #3D3E28",
"$.	c #424222",
"%.	c #394C31",
"&.	c #719978",
"*.	c #84A281",
"=.	c #88B489",
"-.	c #8FAC74",
";.	c #7B955F",
">.	c #556446",
",.	c #78A499",
"'.	c #92C6BF",
").	c #A9DFC7",
"!.	c #AFD1A3",
"~.	c #AFC699",
"{.	c #A5BA92",
"].	c #A3BF98",
"^.	c #A4C197",
"/.	c #ABCD99",
"(.	c #ADC48B",
"_.	c #9DAA84",
":.	c #8FAF92",
"<.	c #9EC08D",
"[.	c #A0B381",
"}.	c #8B9F7E",
"|.	c #859988",
"1.	c #7FB2A2",
"2.	c #A8D08E",
"3.	c #A2A672",
"4.	c #788873",
"5.	c #708B7E",
"6.	c #799C83",
"7.	c #86A07C",
"8.	c #839777",
"9.	c #7C8E6B",
"0.	c #77886B",
"a.	c #6F8976",
"b.	c #738F75",
"c.	c #7E9A80",
"d.	c #8CB091",
"e.	c #94AE84",
"f.	c #869E82",
"g.	c #7D997D",
"h.	c #7C9470",
"i.	c #687A6B",
"j.	c #677758",
"k.	c #55523B",
"l.	c #3C3128",
"m.	c #3F2F1C",
"n.	c #3A2E1A",
"o.	c #255343",
"p.	c #759071",
"q.	c #677765",
"r.	c #627B68",
"s.	c #6A8670",
"t.	c #608372",
"u.	c #6E8D65",
"v.	c #637855",
"w.	c #4D6042",
"x.	c #83A48E",
"y.	c #8AB7A7",
"z.	c #95BCB0",
"A.	c #A1C5A8",
"B.	c #A8C4A4",
"C.	c #B4DBAB",
"D.	c #BAD498",
"E.	c #AEC58F",
"F.	c #A8C08B",
"G.	c #A1B992",
"H.	c #9BBC97",
"I.	c #A6C88A",
"J.	c #A3AF74",
"K.	c #87997D",
"L.	c #80AA8F",
"M.	c #99B581",
"N.	c #96A474",
"O.	c #8A9C7B",
"P.	c #7E9D87",
"Q.	c #8DB892",
"R.	c #9FB47D",
"S.	c #869367",
"T.	c #6D7965",
"U.	c #627E76",
"V.	c #72987B",
"W.	c #889E76",
"X.	c #7C9473",
"Y.	c #7E946F",
"Z.	c #768B6C",
"`.	c #77876A",
" +	c #6F8573",
".+	c #7B987C",
"++	c #819B7A",
"@+	c #809F7D",
"#+	c #89A173",
"$+	c #7F8E67",
"%+	c #6D7E71",
"&+	c #6C9581",
"*+	c #88A175",
"=+	c #7A8F77",
"-+	c #748C6E",
";+	c #727E58",
">+	c #729073",
",+	c #789881",
"'+	c #718773",
")+	c #708666",
"!+	c #687359",
"~+	c #64725F",
"{+	c #58675C",
"]+	c #4E615A",
"^+	c #52735B",
"/+	c #4F614F",
"(+	c #3C523C",
"_+	c #305241",
":+	c #93AE8A",
"<+	c #9AB394",
"[+	c #9EC2A0",
"}+	c #AECBA0",
"|+	c #AEC596",
"1+	c #9FB892",
"2+	c #95B8A2",
"3+	c #A9D3AA",
"4+	c #B0CD98",
"5+	c #A4BF90",
"6+	c #AAC68A",
"7+	c #9FB07C",
"8+	c #99AA87",
"9+	c #92BA91",
"0+	c #A2BC7E",
"a+	c #8D9D78",
"b+	c #7F9B82",
"c+	c #85AA82",
"d+	c #94A678",
"e+	c #7B9474",
"f+	c #788F71",
"g+	c #809877",
"h+	c #87A47E",
"i+	c #8AA375",
"j+	c #88966A",
"k+	c #6A7A68",
"l+	c #638379",
"m+	c #7AA37C",
"n+	c #82946E",
"o+	c #778C6C",
"p+	c #758C6A",
"q+	c #768C63",
"r+	c #738064",
"s+	c #6A8672",
"t+	c #728C6E",
"u+	c #708D77",
"v+	c #82A376",
"w+	c #879364",
"x+	c #6C7B66",
"y+	c #749880",
"z+	c #7CA180",
"A+	c #79997E",
"B+	c #81A179",
"C+	c #8BA372",
"D+	c #7E9368",
"E+	c #6D8161",
"F+	c #697F60",
"G+	c #687F5C",
"H+	c #667A51",
"I+	c #6C7B55",
"J+	c #637053",
"K+	c #475249",
"L+	c #3D584E",
"M+	c #404B3D",
"N+	c #313F2E",
"O+	c #23332F",
"P+	c #6A8C80",
"Q+	c #83B8B0",
"R+	c #B8DEA1",
"S+	c #B4C79C",
"T+	c #ACD3B5",
"U+	c #BBE1A8",
"V+	c #A9C08B",
"W+	c #96AE87",
"X+	c #8DA88D",
"Y+	c #8EB68E",
"Z+	c #9DB67E",
"`+	c #8DA284",
" @	c #93BB8B",
".@	c #A7BF80",
"+@	c #94A779",
"@@	c #84A180",
"#@	c #8CAE80",
"$@	c #92A775",
"%@	c #7D936F",
"&@	c #769372",
"*@	c #7E9770",
"=@	c #758968",
"-@	c #728B64",
";@	c #74875E",
">@	c #6E7C5D",
",@	c #6A8268",
"'@	c #72865D",
")@	c #6E7D5E",
"!@	c #6C846D",
"~@	c #69907C",
"{@	c #7D9B6C",
"]@	c #81946D",
"^@	c #738A6D",
"/@	c #6C8D66",
"(@	c #788B5C",
"_@	c #6B7E61",
":@	c #66805F",
"<@	c #617A64",
"[@	c #648667",
"}@	c #728557",
"|@	c #5D6853",
"1@	c #527068",
"2@	c #577160",
"3@	c #586D61",
"4@	c #5A7562",
"5@	c #587058",
"6@	c #4B604A",
"7@	c #425143",
"8@	c #3C4D3F",
"9@	c #455744",
"0@	c #485C43",
"a@	c #4A5B3F",
"b@	c #47553A",
"c@	c #3F4C3E",
"d@	c #2F393D",
"e@	c #2B302A",
"f@	c #252820",
"g@	c #142325",
"h@	c #8CB296",
"i@	c #A6C7B0",
"j@	c #A0C3B6",
"k@	c #A4C8AB",
"l@	c #ABC897",
"m@	c #AFBE92",
"n@	c #A6BC86",
"o@	c #A3B278",
"p@	c #8EA171",
"q@	c #8CAC88",
"r@	c #86AB8E",
"s@	c #93B57C",
"t@	c #919C79",
"u@	c #81A788",
"v@	c #99B981",
"w@	c #93AB75",
"x@	c #859D76",
"y@	c #809F78",
"z@	c #829E6E",
"A@	c #7C8A5E",
"B@	c #6C7D5B",
"C@	c #66775C",
"D@	c #657659",
"E@	c #637158",
"F@	c #61714E",
"G@	c #5C6346",
"H@	c #4D5548",
"I@	c #4B5C47",
"J@	c #555F43",
"K@	c #505643",
"L@	c #444F45",
"M@	c #445343",
"N@	c #454936",
"O@	c #3F453B",
"P@	c #3B463D",
"Q@	c #3C473B",
"R@	c #393D36",
"S@	c #303632",
"T@	c #2E3329",
"U@	c #30352A",
"V@	c #2F3725",
"W@	c #2E3124",
"X@	c #293125",
"Y@	c #273325",
"Z@	c #252F23",
"`@	c #203024",
" #	c #1A2F22",
".#	c #1C3D2B",
"+#	c #163F2E",
"@#	c #173227",
"##	c #122923",
"$#	c #182524",
"%#	c #192322",
"&#	c #1E201E",
"*#	c #2E2721",
"=#	c #2A2320",
"-#	c #2A2215",
";#	c #1E2012",
">#	c #12181D",
",#	c #89AE93",
"'#	c #96C3AE",
")#	c #9DC8AF",
"!#	c #ACC89A",
"~#	c #A4B684",
"{#	c #A2B18F",
"]#	c #AED3A2",
"^#	c #C5E195",
"/#	c #B3C384",
"(#	c #98AB77",
"_#	c #97AA70",
":#	c #9BAF79",
"<#	c #86A08A",
"[#	c #7FA97B",
"}#	c #8DA773",
"|#	c #789474",
"1#	c #7FA574",
"2#	c #8CA36C",
"3#	c #7F986D",
"4#	c #76946A",
"5#	c #768D5F",
"6#	c #708052",
"7#	c #646F4C",
"8#	c #5B674A",
"9#	c #58644C",
"0#	c #536047",
"a#	c #4E583D",
"b#	c #434B2F",
"c#	c #3C3A29",
"d#	c #3A3827",
"e#	c #353A26",
"f#	c #343523",
"g#	c #313125",
"h#	c #2C3021",
"i#	c #2F3220",
"j#	c #2F3120",
"k#	c #2A2C1F",
"l#	c #2A301F",
"m#	c #293220",
"n#	c #293020",
"o#	c #283522",
"p#	c #2D3C23",
"q#	c #2A3C26",
"r#	c #293A22",
"s#	c #2B4020",
"t#	c #293B1D",
"u#	c #25391A",
"v#	c #263519",
"w#	c #213A20",
"x#	c #113437",
"y#	c #122123",
"z#	c #1D1C19",
"A#	c #261B19",
"B#	c #352516",
"C#	c #352F19",
"D#	c #272618",
"E#	c #142220",
"F#	c #72947F",
"G#	c #8EB898",
"H#	c #A4C097",
"I#	c #95B08F",
"J#	c #95AB83",
"K#	c #A5B173",
"L#	c #A3A26A",
"M#	c #96946A",
"N#	c #9FB786",
"O#	c #B9D17A",
"P#	c #ABB76D",
"Q#	c #8A9E6F",
"R#	c #91AB79",
"S#	c #A2B67C",
"T#	c #74826A",
"U#	c #6E9577",
"V#	c #6F9061",
"W#	c #778963",
"X#	c #709369",
"Y#	c #829F64",
"Z#	c #7D9262",
"`#	c #729462",
" $	c #749059",
".$	c #718550",
"+$	c #677448",
"@$	c #5B6442",
"#$	c #525C42",
"$$	c #4A553B",
"%$	c #474C34",
"&$	c #413E26",
"*$	c #393A25",
"=$	c #353A25",
"-$	c #333923",
";$	c #34371F",
">$	c #32391F",
",$	c #2D351C",
"'$	c #323920",
")$	c #334220",
"!$	c #303D21",
"~$	c #334021",
"{$	c #324926",
"]$	c #31512D",
"^$	c #27522E",
"/$	c #294E2A",
"($	c #344622",
"_$	c #38441F",
":$	c #3C4E21",
"<$	c #3D4E22",
"[$	c #3A4820",
"}$	c #304424",
"|$	c #293D2B",
"1$	c #352B15",
"2$	c #322B14",
"3$	c #252416",
"4$	c #688E7C",
"5$	c #93B48B",
"6$	c #A3B892",
"7$	c #B3D29A",
"8$	c #92A774",
"9$	c #65938F",
"0$	c #7E8C63",
"a$	c #A9B56E",
"b$	c #A4A360",
"c$	c #969366",
"d$	c #97B187",
"e$	c #B1D385",
"f$	c #B3C06A",
"g$	c #97A972",
"h$	c #91AF7B",
"i$	c #A1BB79",
"j$	c #778E66",
"k$	c #6C8970",
"l$	c #6D9670",
"m$	c #708F5B",
"n$	c #70865A",
"o$	c #7C9557",
"p$	c #7E8F55",
"q$	c #70885B",
"r$	c #77945D",
"s$	c #74894F",
"t$	c #657142",
"u$	c #52603A",
"v$	c #494D31",
"w$	c #41482D",
"x$	c #40472A",
"y$	c #3F4728",
"z$	c #3F4B29",
"A$	c #3A4A29",
"B$	c #3F4C29",
"C$	c #3A4A28",
"D$	c #40512A",
"E$	c #415229",
"F$	c #405A2B",
"G$	c #3E602E",
"H$	c #2E562C",
"I$	c #224423",
"J$	c #1E4227",
"K$	c #1F432E",
"L$	c #2F3C1E",
"M$	c #39401E",
"N$	c #3D471F",
"O$	c #3E4E25",
"P$	c #374A23",
"Q$	c #2A603C",
"R$	c #80A582",
"S$	c #A0B897",
"T$	c #A4C39A",
"U$	c #ADC285",
"V$	c #AEC07D",
"W$	c #9AA56C",
"X$	c #818D60",
"Y$	c #A2B372",
"Z$	c #B8D27A",
"`$	c #ADB661",
" %	c #989E5F",
".%	c #92A57E",
"+%	c #A6CC85",
"@%	c #A5B756",
"#%	c #A0A85B",
"$%	c #91A36B",
"%%	c #88A367",
"&%	c #5A5F3D",
"*%	c #A6CEA3",
"=%	c #789C7F",
"-%	c #667342",
";%	c #829751",
">%	c #7F9E5A",
",%	c #8AA355",
"'%	c #6F7E4A",
")%	c #6B814F",
"!%	c #657946",
"~%	c #5C6B3C",
"{%	c #505933",
"]%	c #47512E",
"^%	c #434E2D",
"/%	c #435130",
"(%	c #455631",
"_%	c #485A34",
":%	c #496339",
"<%	c #556C3C",
"[%	c #516C39",
"}%	c #517039",
"|%	c #44733E",
"1%	c #356337",
"2%	c #28461E",
"3%	c #273912",
"4%	c #253718",
"5%	c #2B472E",
"6%	c #3A4921",
"7%	c #3D431B",
"8%	c #314F2A",
"9%	c #81A68E",
"0%	c #98C49C",
"a%	c #AAC58C",
"b%	c #A9B884",
"c%	c #A6BB7C",
"d%	c #A8B16B",
"e%	c #A6B06A",
"f%	c #A5B36D",
"g%	c #B0C277",
"h%	c #B6D27B",
"i%	c #B9CE6A",
"j%	c #9CA457",
"k%	c #94A564",
"l%	c #99BC76",
"m%	c #A8CA64",
"n%	c #A0AD4B",
"o%	c #83884A",
"p%	c #627243",
"q%	c #423F1F",
"r%	c #414430",
"s%	c #556455",
"t%	c #6C7F5C",
"u%	c #92A569",
"v%	c #9BA253",
"w%	c #9CA53D",
"x%	c #919634",
"y%	c #617040",
"z%	c #58683A",
"A%	c #4E5C38",
"B%	c #4C5833",
"C%	c #485D39",
"D%	c #485A36",
"E%	c #495A38",
"F%	c #4D643B",
"G%	c #556E40",
"H%	c #5C7C43",
"I%	c #567F45",
"J%	c #477D47",
"K%	c #3C7040",
"L%	c #3B5A2A",
"M%	c #3C521D",
"N%	c #404F1E",
"O%	c #374920",
"P%	c #2B4728",
"Q%	c #6A8A70",
"R%	c #98B777",
"S%	c #A4B763",
"T%	c #ACB55E",
"U%	c #B3C571",
"V%	c #BBD074",
"W%	c #B2C26E",
"X%	c #ABC070",
"Y%	c #B4D57C",
"Z%	c #B6D47F",
"`%	c #B5D46B",
" &	c #A3B24F",
".&	c #8FA853",
"+&	c #768948",
"@&	c #758A3B",
"#&	c #83943C",
"$&	c #61692C",
"%&	c #41461D",
"&&	c #3B3016",
"*&	c #3C3B1B",
"=&	c #353B16",
"-&	c #424311",
";&	c #6D7F21",
">&	c #8A9A2E",
",&	c #859337",
"'&	c #737C2E",
")&	c #576636",
"!&	c #495E37",
"~&	c #495831",
"{&	c #4E6037",
"]&	c #4E653D",
"^&	c #4F683E",
"/&	c #537343",
"(&	c #587F48",
"_&	c #54854F",
":&	c #447F4C",
"<&	c #357346",
"[&	c #396538",
"}&	c #425928",
"|&	c #455A22",
"1&	c #455820",
"2&	c #415223",
"3&	c #384D27",
"4&	c #668665",
"5&	c #AFC477",
"6&	c #BCCB67",
"7&	c #B1C25D",
"8&	c #B0C260",
"9&	c #95A451",
"0&	c #8FA057",
"a&	c #9CB566",
"b&	c #8DA558",
"c&	c #7C9649",
"d&	c #71853A",
"e&	c #63783A",
"f&	c #535B22",
"g&	c #5D7334",
"h&	c #516024",
"i&	c #424F1C",
"j&	c #495121",
"k&	c #3B3B19",
"l&	c #3C441B",
"m&	c #3E4A1B",
"n&	c #3D481A",
"o&	c #363A15",
"p&	c #40491C",
"q&	c #485A2C",
"r&	c #4E5F30",
"s&	c #4F6234",
"t&	c #526A37",
"u&	c #536E3A",
"v&	c #54713C",
"w&	c #577742",
"x&	c #59844A",
"y&	c #518750",
"z&	c #3E8450",
"A&	c #24764F",
"B&	c #1F593A",
"C&	c #2D4B24",
"D&	c #3F4F1F",
"E&	c #47571F",
"F&	c #4F6024",
"G&	c #4E6227",
"H&	c #455A24",
"I&	c #324F29",
"J&	c #69776B",
"K&	c #809B87",
"L&	c #ABBB8D",
"M&	c #AFBA76",
"N&	c #90A659",
"O&	c #6C793C",
"P&	c #636F33",
"Q&	c #5F793D",
"R&	c #496233",
"S&	c #415D2F",
"T&	c #4B6633",
"U&	c #435D2D",
"V&	c #486334",
"W&	c #476032",
"X&	c #3F5A29",
"Y&	c #44592A",
"Z&	c #3A431C",
"`&	c #435526",
" *	c #415423",
".*	c #3E5623",
"+*	c #465D26",
"@*	c #415B29",
"#*	c #425726",
"$*	c #455E2C",
"%*	c #506C37",
"&*	c #4C733C",
"**	c #4F7F46",
"=*	c #528047",
"-*	c #4E824B",
";*	c #42824B",
">*	c #348050",
",*	c #227654",
"'*	c #2F532D",
")*	c #375C32",
"!*	c #466635",
"~*	c #446734",
"{*	c #345F67",
"]*	c #205656",
"^*	c #275F57",
"/*	c #297165",
"(*	c #367963",
"_*	c #357862",
":*	c #2D664A",
"<*	c #266343",
"[*	c #265F3E",
"}*	c #2D6240",
"|*	c #35623E",
"1*	c #3C6C44",
"2*	c #3A6842",
"3*	c #3D663F",
"4*	c #375C35",
"5*	c #3A5929",
"6*	c #3C6433",
"7*	c #416835",
"8*	c #3E6934",
"9*	c #3C6939",
"0*	c #3B6C3B",
"a*	c #3C703D",
"b*	c #3E7642",
"c*	c #3E7A46",
"d*	c #3D7A47",
"e*	c #3F7E49",
"f*	c #357E4E",
"g*	c #22774E",
"h*	c #1B7153",
"i*	c #18534E",
"j*	c #417146",
"k*	c #445923",
"l*	c #2D4C23",
"m*	c #235B3B",
"n*	c #286C46",
"o*	c #236E46",
"p*	c #266F4A",
"q*	c #1E6F4D",
"r*	c #1C6D4B",
"s*	c #1B6E4E",
"t*	c #1C6F50",
"u*	c #697E3C",
"v*	c #4A5F28",
"w*	c #405E28",
"x*	c #416C56",
"y*	c #596F39",
"z*	c #626F2F",
"A*	c #446335",
"B*	c #567850",
"C*	c #597241",
"                                                                                                                                            ",
"                                                  . + @ # $                                                                                 ",
"                                              % & * = - ; > ,     ' ) ! ~ { ] ^                     / ( _ : <                   [ } |       ",
"                                            1 2 3 4 5 6 7 8 9 0 a b c d e f g h i j k           l m n o p q r               s t u v w       ",
"                                      x y z A B C D E F G H I J K L M N O P Q R S T U V W X Y Z `  ...+.@.#.$.%.          &.*.=.-.;.>.      ",
"                                ,.'.).!.~.{.].^./.(._.:.<.[.}.|.1.2.3.4.5.6.7.8.9.0.a.b.c.d.e.f.g.h.i.j.k.l.m.n.o.    p.q.r.s.t.u.v.w.      ",
"                            x.y.z.A.B.C.D.E.F.G.H.I.J.K.L.M.N.O.P.Q.R.S.T.U.V.W.X.Y.Z.`. +.+++@+#+$+%+&+*+=+-+;+>+,+'+)+!+~+{+]+^+/+(+_+    ",
"                        :+<+[+}+|+1+2+3+4+5+6+7+8+9+0+a+b+c+d+e+f+g+h+i+j+k+l+m+n+o+p+q+r+s+t+u+v+w+x+y+z+A+B+C+D+E+F+G+H+I+J+K+L+M+N+O+    ",
"                    P+Q+R+S+T+U+V+W+X+Y+Z+`+ @.@+@@@#@$@%@&@*@=@-@;@>@,@'@)@!@~@{@]@^@/@(@_@:@<@[@}@|@1@2@3@4@5@6@7@8@9@0@a@b@c@d@e@f@g@    ",
"                  h@i@j@k@l@m@n@o@p@q@r@s@t@u@v@w@x@y@z@A@B@C@D@E@F@G@H@I@J@K@L@M@N@O@P@Q@R@S@T@U@V@W@X@Y@Z@`@ #.#+#@###$#%#&#*#=#-#;#>#    ",
"              ,#'#)#!#~#{#]#^#/#(#_#:#<#[#}#|#1#2#3#4#5#6#7#8#9#0#a#b#c#d#e#f#g#h#i#j#k#l#m#n#o#p#q#r#s#t#u#v#w#        x#y#z#A#B#C#D#E#    ",
"          F#G#H#I#J#K#L#M#N#O#P#Q#R#S#T#U#V#W#X#Y#Z#`# $.$+$@$#$$$%$&$*$=$-$;$>$,$'$)$!$~${$]$^$/$($_$:$<$[$}$                |$1$2$3$      ",
"      4$5$6$7$8$9$0$a$b$c$d$e$f$g$h$i$j$k$l$m$n$o$p$q$r$s$t$u$v$w$x$y$z$A$B$C$D$E$F$G$H$I$J$    K$L$M$N$O$P$Q$                              ",
"    R$S$T$U$V$W$X$Y$Z$`$ %.%+%@%#%$%%%&%*%=%-%;%>%,%'%)%!%~%{%]%^%/%(%_%:%<%[%}%|%1%2%3%4%          5%6%7%8%                                ",
"  9%0%a%b%c%d%e%f%g%h%i%j%k%l%m%n%o%p%q%r%s%t%u%v%w%x%y%z%A%B%C%D%E%F%G%H%I%J%K%L%M%N%O%P%                                                  ",
"  Q%R%S%T%U%V%W%X%Y%Z%`% &.&+&@&#&$&%&&&*&=&-&;&>&,&'&)&!&~&{&]&^&/&(&_&:&<&[&}&|&1&2&3&                                                    ",
"    4&5&6&7&8&9&0&a&b&c&d&e&f&g&h&i&j&k&l&m&n&o&p&q&r&s&t&u&v&w&x&y&z&A&B&C&D&E&F&G&H&I&                                                    ",
"    J&K&L&M&N&O&P&Q&R&S&T&U&V&W&X&Y&Z&`& *.*+*@*#*$*%*&***=*-*;*>*,*          '*)*!*~*                                                      ",
"    {*  ]*^*/*(*_*:*<*[*}*|*1*2*3*4*5*6*7*8*9*0*a*b*c*d*e*f*g*h*                                                                            ",
"                                i*j*k*l*m*n*o*o*p*q*r*s*t*                                                                                  ",
"                                    u*v*w*                                                                                                  ",
"                                    x*y*z*A*                                                                                                ",
"                                        B*C*                                                                                                ",
"                                                                                                                                            "};
