/* XPM */
static char * sapling_xpm[] = {
"39 45 296 2",
"  	c None",
". 	c #7A9C3C",
"+ 	c #88A65F",
"@ 	c #92AD70",
"# 	c #97B36E",
"$ 	c #98B271",
"% 	c #9DB278",
"& 	c #8BA659",
"* 	c #839F49",
"= 	c #95A95D",
"- 	c #A3B479",
"; 	c #ACBA7F",
"> 	c #B1BD75",
", 	c #A8BA6C",
"' 	c #AEC173",
") 	c #B6C787",
"! 	c #9AB85D",
"~ 	c #99B363",
"{ 	c #759541",
"] 	c #829C55",
"^ 	c #84A359",
"/ 	c #84A845",
"( 	c #83A743",
"_ 	c #698D24",
": 	c #86A547",
"< 	c #85A647",
"[ 	c #86A64C",
"} 	c #A7BD70",
"| 	c #BDCB86",
"1 	c #ADC674",
"2 	c #A1BF61",
"3 	c #91B14A",
"4 	c #87AA3D",
"5 	c #81A33E",
"6 	c #9CB462",
"7 	c #799C3C",
"8 	c #739439",
"9 	c #7B9D42",
"0 	c #7DA23F",
"a 	c #8EB04D",
"b 	c #879F4C",
"c 	c #6A8B2B",
"d 	c #6F9123",
"e 	c #799C2B",
"f 	c #8AAA4C",
"g 	c #B6CB88",
"h 	c #B3C66F",
"i 	c #99B857",
"j 	c #85AA3B",
"k 	c #81A53A",
"l 	c #92AC4E",
"m 	c #A4BC6B",
"n 	c #84A939",
"o 	c #779D31",
"p 	c #75992F",
"q 	c #7FA53C",
"r 	c #88AF40",
"s 	c #A5C465",
"t 	c #96AD61",
"u 	c #87A24E",
"v 	c #779735",
"w 	c #759A28",
"x 	c #84A92C",
"y 	c #AEC76B",
"z 	c #ADCC6B",
"A 	c #8EB53A",
"B 	c #87AC3C",
"C 	c #9CB659",
"D 	c #B3C781",
"E 	c #87AC3D",
"F 	c #7EA333",
"G 	c #7DA433",
"H 	c #779D2D",
"I 	c #7CA133",
"J 	c #83AA34",
"K 	c #8DB33A",
"L 	c #A6C35B",
"M 	c #9FBE54",
"N 	c #98B453",
"O 	c #A0B854",
"P 	c #94B542",
"Q 	c #B3CA77",
"R 	c #A7CA52",
"S 	c #95BB3B",
"T 	c #8FB446",
"U 	c #AEC473",
"V 	c #A6C062",
"W 	c #82AA30",
"X 	c #80A631",
"Y 	c #7EA42F",
"Z 	c #7FA631",
"` 	c #8CB432",
" .	c #9BBE45",
"..	c #B0CC61",
"+.	c #A0BD57",
"@.	c #83A826",
"#.	c #86AE2B",
"$.	c #9DC047",
"%.	c #A8CA53",
"&.	c #B8D572",
"*.	c #B2CF6E",
"=.	c #99BB55",
"-.	c #B1C775",
";.	c #9FBE4F",
">.	c #87AE2E",
",.	c #8AB231",
"'.	c #86AE2C",
").	c #87AE32",
"!.	c #88AF34",
"~.	c #A4C15C",
"{.	c #9EBC53",
"].	c #84AC27",
"^.	c #8AB225",
"/.	c #A1C53C",
"(.	c #9DC34B",
"_.	c #A4C754",
":.	c #95BE36",
"<.	c #94BD32",
"[.	c #9BC234",
"}.	c #A3C648",
"|.	c #A9C55B",
"1.	c #B1CB5D",
"2.	c #92BA34",
"3.	c #9BC143",
"4.	c #93B93F",
"5.	c #AAC668",
"6.	c #95B33B",
"7.	c #7FA623",
"8.	c #A5BE5A",
"9.	c #A1C354",
"0.	c #8CB436",
"a.	c #87AF2C",
"b.	c #84AD2A",
"c.	c #87AF2A",
"d.	c #8FB532",
"e.	c #B3CB68",
"f.	c #CADD93",
"g.	c #ADC852",
"h.	c #9EC03A",
"i.	c #87AE35",
"j.	c #98B95A",
"k.	c #A39969",
"l.	c #B3C56F",
"m.	c #8FA943",
"n.	c #83A533",
"o.	c #83AA24",
"p.	c #80A725",
"q.	c #789F22",
"r.	c #6C921F",
"s.	c #7EA32C",
"t.	c #B2CD6C",
"u.	c #A0C050",
"v.	c #9DBE56",
"w.	c #87AD3C",
"x.	c #86A93B",
"y.	c #96AF56",
"z.	c #88A34C",
"A.	c #7D9E3D",
"B.	c #82A73A",
"C.	c #80A328",
"D.	c #789826",
"E.	c #72931A",
"F.	c #779924",
"G.	c #B3D25C",
"H.	c #95BB34",
"I.	c #8AB12B",
"J.	c #84AB28",
"K.	c #7FA62B",
"L.	c #A1BA63",
"M.	c #A8BF6A",
"N.	c #8EB047",
"O.	c #89AE38",
"P.	c #8BB52D",
"Q.	c #9DC13D",
"R.	c #8CA23C",
"S.	c #74952E",
"T.	c #8EAF50",
"U.	c #88AD3E",
"V.	c #8DB140",
"W.	c #91B448",
"X.	c #A4C55A",
"Y.	c #C2DA74",
"Z.	c #93B932",
"`.	c #88AE31",
" +	c #94B642",
".+	c #A2B864",
"++	c #BABB89",
"@+	c #ABBB6B",
"#+	c #889E4E",
"$+	c #739131",
"%+	c #6A8E2D",
"&+	c #7BA030",
"*+	c #79A026",
"=+	c #88AE2F",
"-+	c #82A82A",
";+	c #96BC36",
">+	c #A8C84C",
",+	c #B4D160",
"'+	c #B0CB5C",
")+	c #AFC767",
"!+	c #9E927A",
"~+	c #94B74F",
"{+	c #94B554",
"]+	c #7DA137",
"^+	c #73932B",
"/+	c #7A9737",
"(+	c #789E2E",
"_+	c #7DA132",
":+	c #83A932",
"<+	c #7DA12F",
"[+	c #84AB23",
"}+	c #8FB524",
"|+	c #A4C740",
"1+	c #8A7553",
"2+	c #ABC961",
"3+	c #8DB439",
"4+	c #83A833",
"5+	c #7CA229",
"6+	c #ACC375",
"7+	c #8AAB44",
"8+	c #769C2A",
"9+	c #82AA28",
"0+	c #9DC04F",
"a+	c #A6C462",
"b+	c #9BBA53",
"c+	c #98B552",
"d+	c #96B540",
"e+	c #97B836",
"f+	c #A9C84E",
"g+	c #957D59",
"h+	c #CBCC9F",
"i+	c #9CBA3F",
"j+	c #98BF42",
"k+	c #90B73F",
"l+	c #85AE27",
"m+	c #A7C360",
"n+	c #A3C05F",
"o+	c #86AD32",
"p+	c #7FA72B",
"q+	c #81AA26",
"r+	c #8DB62C",
"s+	c #9CC23D",
"t+	c #B7D169",
"u+	c #C2AB8A",
"v+	c #B2C06E",
"w+	c #A2C84B",
"x+	c #95BD39",
"y+	c #91B92F",
"z+	c #A1C14F",
"A+	c #91B640",
"B+	c #88B032",
"C+	c #83AB25",
"D+	c #8DB62B",
"E+	c #93B92C",
"F+	c #A1C44D",
"G+	c #BFA987",
"H+	c #A7B856",
"I+	c #9FC740",
"J+	c #97BF2A",
"K+	c #A6C84B",
"L+	c #95B93E",
"M+	c #8DB42C",
"N+	c #8AB322",
"O+	c #95BB2B",
"P+	c #B9D275",
"Q+	c #BCAB8C",
"R+	c #B5D05B",
"S+	c #AECF4E",
"T+	c #A5C24A",
"U+	c #99BE2C",
"V+	c #9EC430",
"W+	c #B3A07A",
"X+	c #BED85F",
"Y+	c #A79272",
"Z+	c #A39279",
"`+	c #877054",
" @	c #987E5B",
".@	c #A5906F",
"+@	c #9D8564",
"@@	c #AC9371",
"#@	c #BBA280",
"$@	c #826E57",
"%@	c #998466",
"&@	c #937E63",
"*@	c #BC9F7A",
"=@	c #84725C",
"-@	c #A89176",
";@	c #AA8B67",
">@	c #AD9170",
",@	c #9B7E5D",
"'@	c #A28A6B",
")@	c #867258",
"!@	c #81684C",
"~@	c #795F42",
"{@	c #897459",
"]@	c #8B775B",
"                                                                              ",
"                                                                              ",
"                                . + @ #                                       ",
"                        $ % & * = - ; > , ' )                                 ",
"                    ! ~ { ] ^ / ( _ : < [ }   |                               ",
"            1 2 3 4 5 6 7 8 9 0 a b c d e f   g h                             ",
"            i j k l m n o p q r s   t u v w x y                               ",
"          z A B C D E F G H I J K     L M N O P Q                             ",
"        R S T U     V W X Y Z `  ...+.@.#.$.    %.&.                          ",
"        *.=.-.      ;.>.,.'.).!.~.  {.].^./.(._.:.<.[.}.                      ",
"        |.            1.2.3.4.5.    6.7.8.9.0.a.b.c.d.e.                      ",
"      f.                g.h.i.j.  k.l.m.n.o.p.q.r.s.                          ",
"                        t.u.v.w.x.y.z.A.B.J C.D.E.F.                          ",
"                      G.H.I.J.K.L.  M.N.O.P.Q.    R.S.T.U.V.W.    X.          ",
"                      Y.Z.`. +.+      ++  @+        #+$+%+&+*+=+-+;+>+,+      ",
"                        '+)+  !+              ~+{+]+^+/+(+_+:+<+K.[+}+|+      ",
"                              1+            2+3+4+5+6+7+8+9+0+a+b+c+d+e+f+    ",
"                              g+        h+i+j+k+l+m+n+o+p+q+r+s+t+            ",
"                              u+        v+w+x+y+z+    A+B+C+D+E+F+            ",
"                              G+        H+I+J+K+        L+M+N+O+P+            ",
"                                      Q+R+S+              T+U+V+              ",
"                                W+                            X+              ",
"                                Y+Z+                                          ",
"                                  `+                                          ",
"                                   @                                          ",
"                                  .@                                          ",
"                                  +@                                          ",
"                                  @@                                          ",
"                                  #@                                          ",
"                                                                              ",
"                                                                              ",
"                                    $@                                        ",
"                                    %@                                        ",
"                                    &@                                        ",
"                                  *@                                          ",
"                                  =@                                          ",
"                                  -@                                          ",
"                                  ;@                                          ",
"                                  >@                                          ",
"                                  ,@                                          ",
"                                  '@                                          ",
"                                  )@                                          ",
"                                  !@                                          ",
"                                  ~@                                          ",
"                                  {@]@                                        "};
