/* XPM */
static char * lumberjack_xpm[] = {
"49 70 629 2",
"  	c None",
". 	c #1C1817",
"+ 	c #100E0D",
"@ 	c #0E0C0B",
"# 	c #171311",
"$ 	c #100E0E",
"% 	c #0F0D0E",
"& 	c #0B0909",
"* 	c #090808",
"= 	c #0F0C0C",
"- 	c #1E1A17",
"; 	c #141415",
"> 	c #0A0909",
", 	c #0B0A09",
"' 	c #131314",
") 	c #090707",
"! 	c #0C0B09",
"~ 	c #110E0D",
"{ 	c #2D2D2E",
"] 	c #0E0D0D",
"^ 	c #37251D",
"/ 	c #704C3B",
"( 	c #825F51",
"_ 	c #503B32",
": 	c #191513",
"< 	c #252525",
"[ 	c #462E21",
"} 	c #7D523D",
"| 	c #BC8268",
"1 	c #9B6B55",
"2 	c #AC7B61",
"3 	c #5B4031",
"4 	c #221E1A",
"5 	c #684632",
"6 	c #91604A",
"7 	c #9C6146",
"8 	c #DE9D84",
"9 	c #E5A78F",
"0 	c #B17A60",
"a 	c #7C543F",
"b 	c #B37457",
"c 	c #915942",
"d 	c #C0836D",
"e 	c #D69578",
"f 	c #795743",
"g 	c #4D3629",
"h 	c #996548",
"i 	c #965B48",
"j 	c #C78373",
"k 	c #CF9376",
"l 	c #7D5B44",
"m 	c #655448",
"n 	c #362117",
"o 	c #744B34",
"p 	c #976348",
"q 	c #C38669",
"r 	c #9B6E54",
"s 	c #725440",
"t 	c #4C201C",
"u 	c #76482D",
"v 	c #6A442D",
"w 	c #8F6247",
"x 	c #BA8667",
"y 	c #611A1F",
"z 	c #7C2425",
"A 	c #8B5C43",
"B 	c #C68865",
"C 	c #C88968",
"D 	c #CC906E",
"E 	c #311C16",
"F 	c #6D292D",
"G 	c #3D181A",
"H 	c #291112",
"I 	c #3A1214",
"J 	c #9A8278",
"K 	c #D2926E",
"L 	c #DC9F80",
"M 	c #CF9270",
"N 	c #47261D",
"O 	c #4B1E1E",
"P 	c #563233",
"Q 	c #4C1A1E",
"R 	c #401216",
"S 	c #9E1B21",
"T 	c #631419",
"U 	c #6D1619",
"V 	c #6B4A4B",
"W 	c #D3A693",
"X 	c #DF9E7E",
"Y 	c #D48F6E",
"Z 	c #8E4137",
"` 	c #79171D",
" .	c #771B1E",
"..	c #2E1A1C",
"+.	c #A31C22",
"@.	c #79151C",
"#.	c #6E161A",
"$.	c #3F1214",
"%.	c #83171C",
"&.	c #5F1318",
"*.	c #AD7873",
"=.	c #DFA68A",
"-.	c #DEA384",
";.	c #573B36",
">.	c #401417",
",.	c #581417",
"'.	c #73171B",
").	c #763033",
"!.	c #4F1A1E",
"~.	c #531317",
"{.	c #6D161B",
"].	c #221112",
"^.	c #2F1113",
"/.	c #271D1B",
"(.	c #1D0E0E",
"_.	c #711D20",
":.	c #AE8778",
"<.	c #C39C89",
"[.	c #4A2C2E",
"}.	c #501417",
"|.	c #221212",
"1.	c #421115",
"2.	c #3C1516",
"3.	c #3C191B",
"4.	c #461519",
"5.	c #140D0D",
"6.	c #401317",
"7.	c #68161A",
"8.	c #5D1418",
"9.	c #411C1C",
"0.	c #341B1B",
"a.	c #87161B",
"b.	c #471D1E",
"c.	c #9E8886",
"d.	c #4C1D1E",
"e.	c #98191E",
"f.	c #211110",
"g.	c #69161A",
"h.	c #411214",
"i.	c #331918",
"j.	c #741D23",
"k.	c #77181D",
"l.	c #2A0F12",
"m.	c #561419",
"n.	c #A21A20",
"o.	c #531115",
"p.	c #3C1819",
"q.	c #271C1A",
"r.	c #6B161A",
"s.	c #591418",
"t.	c #6D4040",
"u.	c #271515",
"v.	c #4B1216",
"w.	c #120A0A",
"x.	c #341414",
"y.	c #6C1519",
"z.	c #711C1E",
"A.	c #A73035",
"B.	c #651A1E",
"C.	c #53181C",
"D.	c #4F1116",
"E.	c #B21A21",
"F.	c #3F0E11",
"G.	c #2B0D0F",
"H.	c #161110",
"I.	c #1E1A18",
"J.	c #291113",
"K.	c #563F3E",
"L.	c #441517",
"M.	c #651419",
"N.	c #451C1B",
"O.	c #2D1C1A",
"P.	c #642221",
"Q.	c #B67B6A",
"R.	c #C79481",
"S.	c #55292C",
"T.	c #2E1416",
"U.	c #231516",
"V.	c #260D0E",
"W.	c #85191E",
"X.	c #411013",
"Y.	c #4C0F12",
"Z.	c #391314",
"`.	c #1E1816",
" +	c #4A1316",
".+	c #A31B20",
"++	c #7E2528",
"@+	c #84161B",
"#+	c #88161D",
"$+	c #4F1716",
"%+	c #1E1411",
"&+	c #6D3D33",
"*+	c #B07767",
"=+	c #CB9583",
"-+	c #622426",
";+	c #5F161A",
">+	c #711A21",
",+	c #150A0A",
"'+	c #58151A",
")+	c #4A1213",
"!+	c #5E1316",
"~+	c #71191C",
"{+	c #1D1816",
"]+	c #341012",
"^+	c #A0191F",
"/+	c #93191F",
"(+	c #621519",
"_+	c #2F1112",
":+	c #160708",
"<+	c #0C0907",
"[+	c #643A32",
"}+	c #965F50",
"|+	c #AF7665",
"1+	c #C68F7F",
"2+	c #8D2326",
"3+	c #75191E",
"4+	c #781B21",
"5+	c #5E1417",
"6+	c #A81B21",
"7+	c #431113",
"8+	c #260C0D",
"9+	c #381414",
"0+	c #1C1815",
"a+	c #0F0B0A",
"b+	c #581216",
"c+	c #381617",
"d+	c #76171B",
"e+	c #521417",
"f+	c #140708",
"g+	c #150D0C",
"h+	c #421615",
"i+	c #7A473A",
"j+	c #97614F",
"k+	c #561F21",
"l+	c #311516",
"m+	c #3D1618",
"n+	c #5F171A",
"o+	c #6D161A",
"p+	c #1E0B0C",
"q+	c #230C0D",
"r+	c #391214",
"s+	c #1D1815",
"t+	c #2C0F11",
"u+	c #84181C",
"v+	c #6B191B",
"w+	c #A0191E",
"x+	c #9C191F",
"y+	c #210E0F",
"z+	c #130E0D",
"A+	c #200E0C",
"B+	c #73483B",
"C+	c #926351",
"D+	c #562123",
"E+	c #481518",
"F+	c #721A1E",
"G+	c #8F1B20",
"H+	c #63181B",
"I+	c #100708",
"J+	c #4C1214",
"K+	c #5D1518",
"L+	c #3B1113",
"M+	c #5F1417",
"N+	c #681619",
"O+	c #381213",
"P+	c #4D1417",
"Q+	c #1E0F0F",
"R+	c #1B100F",
"S+	c #3A1F17",
"T+	c #8A5E4C",
"U+	c #734234",
"V+	c #9C2B30",
"W+	c #6D1519",
"X+	c #891A1F",
"Y+	c #991A20",
"Z+	c #7E171B",
"`+	c #0A0405",
" @	c #2F1011",
".@	c #441213",
"+@	c #1C1814",
"@@	c #231010",
"#@	c #2D1011",
"$@	c #3C1013",
"%@	c #441314",
"&@	c #5A1418",
"*@	c #4D1617",
"=@	c #1D0F0E",
"-@	c #46281A",
";@	c #5F3C2D",
">@	c #3B1A17",
",@	c #63282A",
"'@	c #3D1214",
")@	c #4B1619",
"!@	c #320F10",
"~@	c #1C090A",
"{@	c #3A1212",
"]@	c #3A1011",
"^@	c #1B1714",
"/@	c #511516",
"(@	c #6B151A",
"_@	c #A11B20",
":@	c #541116",
"<@	c #82171C",
"[@	c #881C1E",
"}@	c #2A100F",
"|@	c #471414",
"1@	c #501919",
"2@	c #3A2323",
"3@	c #411315",
"4@	c #67181B",
"5@	c #551517",
"6@	c #350E10",
"7@	c #561314",
"8@	c #4A1314",
"9@	c #561517",
"0@	c #501216",
"a@	c #80181B",
"b@	c #250D0F",
"c@	c #2A0F10",
"d@	c #421A19",
"e@	c #662428",
"f@	c #86191C",
"g@	c #6E1519",
"h@	c #9A1C21",
"i@	c #A61B21",
"j@	c #2F0D0F",
"k@	c #331111",
"l@	c #7D1D1D",
"m@	c #2C251C",
"n@	c #50211B",
"o@	c #2B0E0F",
"p@	c #70171A",
"q@	c #321213",
"r@	c #371B16",
"s@	c #682220",
"t@	c #641719",
"u@	c #401213",
"v@	c #541719",
"w@	c #571819",
"x@	c #7A1719",
"y@	c #3D1011",
"z@	c #321614",
"A@	c #5E5038",
"B@	c #47231C",
"C@	c #1A0D0C",
"D@	c #3F1112",
"E@	c #2A0C0D",
"F@	c #3C1212",
"G@	c #43281C",
"H@	c #341816",
"I@	c #3F1415",
"J@	c #24100E",
"K@	c #401616",
"L@	c #531717",
"M@	c #160807",
"N@	c #160F0C",
"O@	c #181310",
"P@	c #463C2D",
"Q@	c #1C1512",
"R@	c #191512",
"S@	c #231613",
"T@	c #261C18",
"U@	c #191411",
"V@	c #1D1814",
"W@	c #79171A",
"X@	c #8D1A1E",
"Y@	c #921C20",
"Z@	c #220B0B",
"`@	c #140F0B",
" #	c #1A1511",
".#	c #1F1A16",
"+#	c #1E1915",
"@#	c #1E1916",
"##	c #181411",
"$#	c #1A1613",
"%#	c #861A1D",
"&#	c #77181B",
"*#	c #A71D21",
"=#	c #861E20",
"-#	c #60261F",
";#	c #32211A",
">#	c #1C1611",
",#	c #1C1712",
"'#	c #16120E",
")#	c #17130F",
"!#	c #191511",
"~#	c #14100D",
"{#	c #1A1512",
"]#	c #6E2423",
"^#	c #4F2320",
"/#	c #7F392F",
"(#	c #7D5242",
"_#	c #371C16",
":#	c #19120D",
"<#	c #1D1610",
"[#	c #1A1410",
"}#	c #1B1613",
"|#	c #15110E",
"1#	c #29231D",
"2#	c #A46F5C",
"3#	c #CA8F77",
"4#	c #684A3C",
"5#	c #1B140D",
"6#	c #19130F",
"7#	c #15110D",
"8#	c #14110D",
"9#	c #181410",
"0#	c #16120F",
"a#	c #130F0C",
"b#	c #26211B",
"c#	c #9C6D5D",
"d#	c #CB9480",
"e#	c #956B59",
"f#	c #1C150E",
"g#	c #1B1510",
"h#	c #17120E",
"i#	c #171310",
"j#	c #2A241E",
"k#	c #85746C",
"l#	c #BE8775",
"m#	c #C78E7B",
"n#	c #CB947E",
"o#	c #32241A",
"p#	c #211A13",
"q#	c #0F0C0A",
"r#	c #100C0A",
"s#	c #29241E",
"t#	c #897873",
"u#	c #B9806E",
"v#	c #C38A77",
"w#	c #D09583",
"x#	c #69493B",
"y#	c #231D17",
"z#	c #1B1612",
"A#	c #16110E",
"B#	c #090706",
"C#	c #201C17",
"D#	c #2B261F",
"E#	c #87756F",
"F#	c #A96B5A",
"G#	c #B27060",
"H#	c #C07C6C",
"I#	c #695C55",
"J#	c #1D1813",
"K#	c #191410",
"L#	c #0E0B09",
"M#	c #050403",
"N#	c #1F1B17",
"O#	c #2A251F",
"P#	c #935E4F",
"Q#	c #9D6252",
"R#	c #A97160",
"S#	c #96908C",
"T#	c #736E6B",
"U#	c #0A0806",
"V#	c #070604",
"W#	c #0D0A09",
"X#	c #28241E",
"Y#	c #19110E",
"Z#	c #3E2821",
"`#	c #442F28",
" $	c #5E5955",
".$	c #96928E",
"+$	c #75726F",
"@$	c #110D0B",
"#$	c #29241D",
"$$	c #120E0B",
"%$	c #4F4B46",
"&$	c #94908D",
"*$	c #6B6866",
"=$	c #0A0907",
"-$	c #0C0908",
";$	c #120E0C",
">$	c #0D0A08",
",$	c #5F5A56",
"'$	c #95918D",
")$	c #676462",
"!$	c #130F0D",
"~$	c #110E0B",
"{$	c #0E0B08",
"]$	c #706C66",
"^$	c #999592",
"/$	c #5B5856",
"($	c #1A1612",
"_$	c #17120F",
":$	c #191713",
"<$	c #6A6561",
"[$	c #9A9692",
"}$	c #5D5956",
"|$	c #211C17",
"1$	c #15100D",
"2$	c #0E0C0A",
"3$	c #6A6661",
"4$	c #9B9793",
"5$	c #686562",
"6$	c #28231D",
"7$	c #140F0D",
"8$	c #14100E",
"9$	c #0B0807",
"0$	c #120F0D",
"a$	c #615D58",
"b$	c #928E8A",
"c$	c #14110F",
"d$	c #070605",
"e$	c #120E0D",
"f$	c #514D49",
"g$	c #8C8985",
"h$	c #9E9B96",
"i$	c #171210",
"j$	c #14110E",
"k$	c #83807C",
"l$	c #989691",
"m$	c #090705",
"n$	c #0A0807",
"o$	c #777470",
"p$	c #888481",
"q$	c #9C9995",
"r$	c #2D2623",
"s$	c #140F0E",
"t$	c #110D0C",
"u$	c #0C0A08",
"v$	c #070504",
"w$	c #0B0907",
"x$	c #807E7B",
"y$	c #888581",
"z$	c #928F8B",
"A$	c #9B9894",
"B$	c #26201D",
"C$	c #080605",
"D$	c #100C0B",
"E$	c #1F1A15",
"F$	c #868280",
"G$	c #84817E",
"H$	c #86837F",
"I$	c #7F7C76",
"J$	c #231D1B",
"K$	c #080705",
"L$	c #423E3A",
"M$	c #878582",
"N$	c #83807D",
"O$	c #817E7B",
"P$	c #817E79",
"Q$	c #7E7B76",
"R$	c #14100F",
"S$	c #100D0B",
"T$	c #7E7B77",
"U$	c #7F7C79",
"V$	c #807D78",
"W$	c #1C1714",
"X$	c #0E0C09",
"Y$	c #7C7974",
"Z$	c #7D7A75",
"`$	c #817E78",
" %	c #221D1A",
".%	c #030202",
"+%	c #211C1A",
"@%	c #080604",
"#%	c #040303",
"$%	c #040302",
"%%	c #161210",
"&%	c #0F0C0B",
"*%	c #070505",
"=%	c #13100D",
"-%	c #0D0B0A",
";%	c #0A0706",
">%	c #191613",
",%	c #2B2721",
"'%	c #1A1815",
")%	c #13110F",
"!%	c #090806",
"~%	c #1A1714",
"{%	c #0B0808",
"]%	c #1C1713",
"^%	c #26221C",
"/%	c #201D1A",
"(%	c #100D0C",
"_%	c #211D18",
":%	c #181513",
"<%	c #0D0B09",
"[%	c #1F1C18",
"}%	c #231F1A",
"|%	c #1E1A16",
"1%	c #201C1B",
"2%	c #100F0C",
"3%	c #1A1713",
"4%	c #2A2622",
"5%	c #181413",
"6%	c #221E1C",
"7%	c #2D2824",
"8%	c #161411",
"9%	c #1D1A17",
"0%	c #272521",
"a%	c #171412",
"b%	c #181312",
"c%	c #1C1816",
"d%	c #282422",
"e%	c #2A2722",
"f%	c #221E1B",
"g%	c #312D29",
"h%	c #1E1B18",
"i%	c #34302A",
"j%	c #201C18",
"k%	c #1D1918",
"l%	c #1D1A18",
"m%	c #2C2822",
"n%	c #2C2924",
"o%	c #3A3732",
"p%	c #312E29",
"q%	c #292521",
"r%	c #27231F",
"s%	c #403A32",
"t%	c #28241D",
"u%	c #1E1815",
"v%	c #1D1B18",
"w%	c #23201C",
"x%	c #2F2B24",
"y%	c #48413C",
"z%	c #433D38",
"A%	c #231F1B",
"B%	c #2D2821",
"C%	c #23201D",
"D%	c #24211D",
"E%	c #45403A",
"F%	c #393530",
"G%	c #2E2924",
"H%	c #28231E",
"I%	c #25211C",
"J%	c #3B342E",
"K%	c #2B2722",
"L%	c #2C2721",
"                                                                                                  ",
"                                            . + @ #                                               ",
"                                          $ % & * = -                                             ",
"                                          ; > * , +                                               ",
"                                          ' ) ! @ ~ .                                             ",
"                                        { ] ^ / ( _ :                                             ",
"                                        < [ } | 1 2 3                                             ",
"                                        4 5 6 7 8 9 0                                             ",
"                                          a b c d e f                                             ",
"                                          g h i j k l                                             ",
"                                        m n o p q r s                                             ",
"                                          t u v w x                                               ",
"                                        y z A B C D E                                             ",
"                                    F G H I J K L M N O                                           ",
"                                P Q R S T U V W X Y Z `  .                                        ",
"                                ..+.@.#.$.%.&.*.=.-.;.>.,.'.                                      ",
"                              ).!.~.{.].^./.(._.:.<.[.}.|.1.2.                                    ",
"                              3.4.5.6.7.8.9.0.a.b.c.d.e.f.g.h.i.                                  ",
"                              j.k.l.m.n.o.p.q.r.s.t.u.v.w.x.y.z.                                  ",
"                            A.B.C.D.E.F.G.H.I.J.>.K.L.M.N.O.P.Q.R.                                ",
"                            S.T.U.V.W.X.Y.Z.`. +.+++@+#+$+%+&+*+=+                                ",
"                            -+;+>+,+'+)+!+~+{+]+^+/+(+_+:+<+[+}+|+1+                              ",
"                            2+3+4+5+6+7+8+9+0+a+b+c+d+e+f+g+h+i+j+                                ",
"                            k+l+m+n+o+p+q+r+s+t+u+v+w+x+y+z+A+B+C+                                ",
"                            D+E+F+G+H+I+J+K+0+L+M+N+O+P+Q+R+S+T+U+                                ",
"                            V+W+X+Y+Z+`+ @.@+@@@#@$@%@&@*@=@-@;@>@                                ",
"                            ,@'@O+)@!@~@{@]@^@/@(@_@:@<@[@}@|@1@                                  ",
"                            2@3@$.4@5@6@7@8@+@9@0@a@b@c@d@                                        ",
"                            e@f@g@h@i@j@k@l@m@n@o@p@q@)+r@s@                                      ",
"                              t@u@v@w@x@y@z@A@B@C@D@E@F@G@H@                                      ",
"                              I@J@K@L@M@N@O@P@Q@R@S@T@U@V@                                        ",
"                              W@U X@Y@Z@`@ #.#+#@#R@+@##$#                                        ",
"                              %#&#*#=#-#;#>#,#'#)#R@!#~#{#                                        ",
"                              ]#^#/#(#_#:#<#[#)#'#}#O@~#|#1#                                      ",
"                                  2#3#4#5#<#6#7#8#9#0#a#)#b#                                      ",
"                                  c#d#e#f#<#g#h#~#9#a#~#i#j#                                      ",
"                                k#l#m#n#o#p#[#h#7#q#r#|#+@s#                                      ",
"                                t#u#v#w#x#y#z#A#B#B#a#9#C#D#                                      ",
"                                E#F#G#H#I#J#K#L#M#L#~#9#N#O#                                      ",
"                                  P#Q#R#S#T#V@U#V#W#~#i#}#X#                                      ",
"                                  Y#Z#`# $.$+$B#U#L#@$~####$                                      ",
"                                  a#a#$$<+%$&$*$=$-$r#~#U@                                        ",
"                                  ;$a#~#>$$$,$'$)$-$r#~###                                        ",
"                                  $$!$|#~${$  ]$^$/$;$|#($                                        ",
"                                  a#!$0#_$r#  :$<$[$}$##|$                                        ",
"                                  1$~#U@{#$$  2$!$3$4$5$6$                                        ",
"                                  A#7$9#U@$$  8$9$0$a$.$b$                                        ",
"                                  i#;$~#0#r#  c$9$d$e$f$g$h$                                      ",
"                                  i$;$;$8$!$  j$U#U#U#}#  k$l$                                    ",
"                                  |#!$!$r#0#  L#m$B#n$R@    o$p$q$                                ",
"                                r$s$s$t$u$i#  B#v$W#w$!#    x$y$z$A$                              ",
"                                B$e$q#L#W#$#  C$C$n$D$E$  F$G$G$H$I$                              ",
"                                J$q#D$8$a+R@  v$K$d$!$L$M$N$O$P$Q$                                ",
"                                R$t$R$R$t$+@  C$K$K$S$  Q$T$U$V$                                  ",
"                                z+D$R$R$t$W$  v$V#K$X$    Y$Z$`$                                  ",
"                               %e$D$e$t$a+    d$.%K$L#                                            ",
"                              +%e$D$a+w$w$    @%#%$%U#                                            ",
"                                %%&%=$w$*%=%  -%;%M#M#w$                                          ",
"                                >%L#&%n$u$$#  ,%'%)%!%|#                                          ",
"                                ~%{%9$u$]%    ^%%%/%B#                                            ",
"                                c$(%S$j$      _%0$:%<%                                            ",
"                                  [%$#[%      }%|%1%-                                             ",
"                                  >%2%3%      4%$#5%6%7%                                          ",
"                                  8%9%9%      0%a%b%c%d%e%                                        ",
"                                  f%g%h%    i%j%^@i#R@k%l%m%n%o%                                  ",
"                                p%q%r%4 s%    s#t%}%u%!## 0+v%w%x%                                ",
"                                y%z%A%B%                  C%D%                                    ",
"                              E%F%G%H%I%                                                          ",
"                              J%K%O#L%                                                            ",
"                                                                                                  "};
